<?xml version="1.0" encoding="utf-8"?><!--Uploaded to: SVG Repo, www.svgrepo.com, Generator: SVG Repo Mixer Tools--><!DOCTYPE svg PUBLIC "-//W3C//DTD SVG 1.1//EN" "http://www.w3.org/Graphics/SVG/1.1/DTD/svg11.dtd"><svg xmlns="http://www.w3.org/2000/svg" xmlns:xlink="http://www.w3.org/1999/xlink" xml:space="preserve" id="Layer_1" width="800px" height="800px" enable-background="new 0 0 512 512" version="1.1" viewBox="0 0 512 512"><g><path d="M453.276,108.284l-75.02-49.193c-7.458-4.886-16.63-6.261-25.05-3.737c-8.517,2.475-15.489,8.541-19.129,16.629
		l-44.301,98.56c-0.332-0.004-0.638-0.092-0.969-0.092c-3.211,0-6.422,0.21-9.763,0.631c-9.188-10.655-20.499-19.208-33.066-25.563
		c14.552-6.884,24.687-21.581,24.687-38.755c0-23.731-19.242-42.966-42.981-42.966c-3.061,0-6.037,0.344-8.917,0.952
		c-23.865-45.326-89.534-51.379-92.73-51.633c-4.521-0.291-8.557,3.009-8.938,7.571c-0.372,4.562,3.017,8.558,7.579,8.93
		c0.667,0.057,58.007,5.314,78.68,41.765c-11.25,7.748-18.647,20.689-18.647,35.382c0,10.023,3.569,19.123,9.316,26.431
		C134.04,133.352,85.287,179.089,85.287,235.32c0,11.693,2.212,22.886,6.09,33.358c8.139-8.267,18.901-13.19,30.501-13.862
		c-2.033-6.224-3.462-12.679-3.462-19.496c0-38.048,34.06-69.01,75.917-69.01c26.158,0,50.165,12.084,64.214,32.321
		c3.882,5.613,10.822,8.25,17.447,6.665c4.91-1.165,8.978-1.715,12.812-1.715c27.784,0,50.382,20.351,50.382,45.376
		c0,1.906-0.37,3.721-0.625,5.565h3.497c10.488,0,20.502,3.503,28.609,9.773c1.051-4.966,1.649-10.086,1.649-15.338
		c0-31.82-20.328-59.146-49.342-71.461l39.935-88.851l72.197,47.333c7.651,5.047,17.94,2.896,22.938-4.772
		C463.063,123.555,460.928,113.299,453.276,108.284z"/><path d="M342.061,287.652H124.564c-4.036,0-7.862,1.778-10.466,4.868c-2.596,3.091-3.712,7.167-3.025,11.147
		c9.197,53.049,51.98,94.45,105.675,101.629v61.146c-31.625,2.092-55.22,9.969-55.22,19.422c0,11.066,32.136,20.028,71.784,20.028
		c39.65,0,71.785-8.962,71.785-20.028c0-9.452-23.594-17.328-55.219-19.421v-61.147c53.696-7.181,96.479-48.581,105.675-101.629
		c0.696-3.979-0.413-8.056-3.017-11.147C349.94,289.43,346.105,287.652,342.061,287.652z"/></g><rect width="3.484" height="2.875" x="287.781" y="169.031" fill="none" stroke="#EF0000" stroke-miterlimit="10" stroke-width="0.5"/></svg>