<?xml version="1.0" ?>
<!-- Uploaded to: SVG Repo, www.svgrepo.com, Generator: SVG Repo Mixer Tools -->
<svg width="800px" height="800px" viewBox="0 0 32 32" version="1.1" xml:space="preserve" xmlns="http://www.w3.org/2000/svg" xmlns:xlink="http://www.w3.org/1999/xlink">
<g id="Musik_icon">
<g>
<path d="M25.5,28h-18C6.67,28,6,28.67,6,29.5S6.67,31,7.5,31h18c0.83,0,1.5-0.67,1.5-1.5S26.33,28,25.5,28z"/>
<path d="M21.38,27C27,24.83,31,19.37,31,13c0-0.55-0.45-1-1-1h-2.46h-1.32h-0.87h-1.17H2c-0.55,0-1,0.45-1,1    c0,6.37,4,11.83,9.62,14H21.38z"/>
<path d="M26.42,11h1.56l2.93-6.59c0.23-0.51,0-1.1-0.5-1.32c-0.51-0.23-1.1,0-1.32,0.5l-2.16,4.86l1.05-5.25    c0.11-0.55-0.24-1.07-0.78-1.18c-0.54-0.11-1.07,0.24-1.18,0.78L24.38,11h1.42H26.42z"/>
<path d="M10.29,9.29C10.29,9.29,10.29,9.29,10.29,9.29c-0.39,0.39-0.39,1.02,0,1.41C10.49,10.9,10.74,11,11,11s0.51-0.1,0.71-0.29    c0.24-0.24,1.38-1.61,0.24-5.02c-0.68-2.04,0.38-2.72,0.51-2.8c0.48-0.25,0.68-0.84,0.43-1.33c-0.25-0.49-0.85-0.7-1.34-0.45    c-0.96,0.48-2.51,2.19-1.5,5.21C10.78,8.5,10.28,9.29,10.29,9.29z"/>
<path d="M15.29,9.29C15.29,9.29,15.29,9.29,15.29,9.29c-0.39,0.39-0.39,1.02,0,1.41C15.49,10.9,15.74,11,16,11s0.51-0.1,0.71-0.29    c0.24-0.24,1.38-1.61,0.24-5.02c-0.68-2.04,0.38-2.72,0.51-2.8c0.48-0.25,0.68-0.84,0.43-1.33c-0.25-0.49-0.85-0.7-1.34-0.45    c-0.96,0.48-2.51,2.19-1.5,5.21C15.78,8.5,15.28,9.29,15.29,9.29z"/>
<path d="M20.29,9.29C20.29,9.29,20.29,9.29,20.29,9.29c-0.39,0.39-0.39,1.02,0,1.41C20.49,10.9,20.74,11,21,11s0.51-0.1,0.71-0.29    c0.24-0.24,1.38-1.61,0.24-5.02c-0.68-2.04,0.38-2.72,0.51-2.8c0.48-0.25,0.68-0.84,0.43-1.33c-0.25-0.49-0.85-0.7-1.34-0.45    c-0.96,0.48-2.51,2.19-1.5,5.21C20.78,8.5,20.28,9.29,20.29,9.29z"/>
</g>
</g>
</svg>