<?xml version="1.0" encoding="utf-8"?><!--Uploaded to: SVG Repo, www.svgrepo.com, Generator: SVG Repo Mixer Tools--><svg xmlns="http://www.w3.org/2000/svg" xmlns:xlink="http://www.w3.org/1999/xlink" xml:space="preserve" id="Icons" width="800px" height="800px" fill="#000000" version="1.1" viewBox="0 0 32 32"><g><path d="M19.5,7.5c-1.7-0.3-3.4-0.5-5-0.5l5.1,10.8c1.9-0.1,3.5-0.3,4.8-0.5L19.5,7.5z"/><path d="M12.3,7C10.6,7.1,9.2,7.3,8,7.6L12.6,18c0.3,0,0.6,0,0.9,0c1.4,0,2.7,0,3.9-0.1L12.3,7z"/><path d="M22,8l4.4,8.8c2.5-0.7,3.6-1.8,3.6-3.4C30,10.9,26.4,9.1,22,8z"/><path d="M6.1,8.3C3.2,9.5,2,11.6,2,13.5c0,3.5,3.3,4.3,8.4,4.5L6.1,8.3z"/></g><path d="M27.3,18.7l0.1,0.2L26,19.1l0,0c0,2.7-2.3,4.9-5,4.9H11c-2.6,0-4.7-1.9-4.9-4.4C5.4,19.4,4.7,19.3,4,19c0,3.9,3.1,7,7,7h10
	c3.9,0,7-3.1,7-7v-0.6C27.8,18.5,27.6,18.6,27.3,18.7z"/></svg>