<?xml version="1.0" encoding="iso-8859-1"?>
<!-- Uploaded to: SVG Repo, www.svgrepo.com, Generator: SVG Repo Mixer Tools -->
<svg fill="#000000" height="800px" width="800px" version="1.1" id="Layer_1" xmlns="http://www.w3.org/2000/svg" xmlns:xlink="http://www.w3.org/1999/xlink" 
	 viewBox="0 0 512 512" xml:space="preserve">
<g>
	<g>
		<polygon points="422.965,85.95 273.272,85.95 273.272,53.746 363.381,33.721 355.887,0 238.728,26.035 238.728,85.95 
			89.035,85.95 83.277,155.039 428.723,155.039 		"/>
	</g>
</g>
<g>
	<g>
		<path d="M106.307,189.584l1.647,46.085c15.21,0.267,23.693,4.161,30.539,7.321c5.437,2.51,9.029,4.168,17.709,4.168
			c8.68,0,12.273-1.658,17.71-4.167c7.092-3.274,15.918-7.348,32.185-7.348c16.268,0,25.094,4.074,32.186,7.348
			c0.152,0.07,0.297,0.137,0.446,0.205v-53.612H106.307z"/>
	</g>
</g>
<g>
	<g>
		<path d="M387.979,274.356c-7.092,3.272-15.919,7.346-32.189,7.346c-16.268,0-25.096-4.074-32.188-7.346
			c-5.44-2.51-9.032-4.168-17.714-4.168c-8.68,0-12.273,1.658-17.71,4.167c-4.049,1.869-8.667,3.994-14.906,5.479v174.592h-34.545
			V279.837c-6.247-1.484-10.87-3.612-14.922-5.482c-5.437-2.509-9.03-4.167-17.71-4.167c-8.68,0-12.271,1.658-17.709,4.167
			c-7.092,3.274-15.918,7.348-32.186,7.348c-16.267,0-25.093-4.074-32.185-7.348c-4.792-2.212-8.155-3.761-14.828-4.097L117.822,512
			h276.357l8.634-241.742C396.137,270.595,392.772,272.143,387.979,274.356z"/>
	</g>
</g>
<g>
	<g>
		<path d="M273.272,189.584v53.605c0.144-0.067,0.283-0.13,0.43-0.198c7.092-3.274,15.918-7.348,32.186-7.348
			c16.269,0,25.097,4.074,32.189,7.346c5.44,2.51,9.032,4.168,17.713,4.168c8.682,0,12.275-1.658,17.714-4.168
			c6.846-3.16,15.331-7.054,30.542-7.321l1.647-46.085H273.272z"/>
	</g>
</g>
</svg>