<?xml version="1.0" encoding="iso-8859-1"?><!--Uploaded to: SVG Repo, www.svgrepo.com, Generator: SVG Repo Mixer Tools--><svg xmlns="http://www.w3.org/2000/svg" xmlns:xlink="http://www.w3.org/1999/xlink" xml:space="preserve" id="Capa_1" fill="#000000" version="1.1" viewBox="0 0 45.293 45.293"><g><g id="b175_hot_food"><path d="M26.138,21.111c0.019-0.158,0.027-0.32,0.027-0.482c0-2.045-1.418-3.701-3.168-3.701c-1.753,0-3.173,1.656-3.173,3.701
			c0,0.125,0.008,0.248,0.018,0.373c-9.762,1.363-17.28,9.746-17.28,19.887H42.73C42.73,30.988,35.562,22.766,26.138,21.111z"/><rect width="40.168" height="2.467" x="2.562" y="42.826"/><path d="M13.124,16.174c0.29,0.318,0.65,0.527,1.016,0.641c0.366,0.113,0.741,0.156,1.105,0.113
			c-0.679-0.23-1.299-0.621-1.56-1.152c-0.271-0.516-0.184-1.123,0.019-1.711c0.211-0.594,0.539-1.174,0.902-1.738
			c0.364-0.564,0.77-1.117,1.196-1.66c0.444-0.578,0.866-1.188,1.229-1.842c0.357-0.658,0.671-1.357,0.822-2.146
			c0.072-0.391,0.106-0.805,0.035-1.227c-0.065-0.418-0.241-0.84-0.526-1.158c-0.286-0.316-0.646-0.527-1.013-0.641
			c-0.367-0.114-0.74-0.153-1.103-0.114c0.677,0.229,1.3,0.623,1.56,1.156c0.271,0.516,0.181,1.119-0.022,1.707
			c-0.211,0.596-0.535,1.176-0.899,1.738c-0.364,0.566-0.771,1.117-1.195,1.662c-0.444,0.58-0.866,1.186-1.229,1.842
			c-0.358,0.656-0.673,1.359-0.821,2.145c-0.074,0.391-0.107,0.809-0.037,1.227C12.671,15.436,12.844,15.855,13.124,16.174z"/><path d="M20.525,12.652c0.287,0.314,0.648,0.527,1.013,0.639c0.37,0.115,0.745,0.154,1.106,0.115
			c-0.678-0.23-1.3-0.625-1.558-1.152c-0.274-0.521-0.185-1.123,0.02-1.713c0.206-0.594,0.536-1.174,0.898-1.736
			c0.367-0.566,0.771-1.119,1.197-1.662c0.446-0.578,0.865-1.186,1.229-1.842c0.355-0.656,0.675-1.359,0.824-2.146
			c0.073-0.391,0.104-0.805,0.033-1.227c-0.066-0.416-0.243-0.84-0.525-1.158c-0.285-0.316-0.647-0.531-1.013-0.643
			c-0.367-0.111-0.744-0.152-1.106-0.111c0.677,0.23,1.3,0.623,1.558,1.154c0.271,0.52,0.183,1.119-0.021,1.711
			c-0.21,0.59-0.535,1.174-0.899,1.736c-0.364,0.566-0.767,1.117-1.192,1.662c-0.446,0.578-0.867,1.188-1.231,1.844
			c-0.354,0.652-0.67,1.355-0.821,2.145c-0.071,0.391-0.104,0.807-0.034,1.225C20.069,11.908,20.243,12.334,20.525,12.652z"/><path d="M28.124,16.174c0.287,0.318,0.646,0.527,1.014,0.641s0.742,0.156,1.104,0.113c-0.677-0.23-1.298-0.621-1.56-1.152
			c-0.271-0.516-0.182-1.123,0.021-1.711c0.211-0.594,0.539-1.174,0.9-1.738c0.366-0.564,0.77-1.117,1.195-1.66
			c0.447-0.578,0.868-1.188,1.229-1.842c0.358-0.658,0.677-1.357,0.825-2.146c0.074-0.391,0.106-0.805,0.036-1.227
			c-0.069-0.418-0.244-0.84-0.524-1.158c-0.288-0.316-0.648-0.527-1.016-0.641S30.604,3.5,30.241,3.539
			c0.679,0.229,1.302,0.623,1.557,1.156c0.275,0.516,0.183,1.119-0.019,1.707C31.57,6.998,31.244,7.578,30.88,8.14
			c-0.366,0.566-0.772,1.117-1.193,1.662c-0.447,0.58-0.87,1.186-1.228,1.842c-0.361,0.656-0.676,1.359-0.826,2.145
			c-0.072,0.391-0.105,0.809-0.033,1.227C27.666,15.436,27.838,15.855,28.124,16.174z"/></g><g id="Capa_1_227_"/></g></svg>