<?xml version="1.0" encoding="iso-8859-1"?><!--Uploaded to: SVG Repo, www.svgrepo.com, Generator: SVG Repo Mixer Tools--><svg xmlns="http://www.w3.org/2000/svg" xmlns:xlink="http://www.w3.org/1999/xlink" xml:space="preserve" id="Layer_1" width="800px" height="800px" fill="#000000" version="1.1" viewBox="0 0 512 512"><g><g><path d="M389.267,393.899c-37.781,7.027-82.887,10.71-130.889,10.71c-2.652,0-5.308-0.011-7.977-0.034
			c-62.891-0.531-135.38-7.605-184.558-24.671C94.639,456.973,169.009,512,255.998,512c87.644,0,162.48-55.855,190.8-133.835
			C431.001,384.45,411.797,389.709,389.267,393.899z"/></g></g><g><g><path d="M450.598,242.226c-16.482,6.975-36.965,12.757-61.331,17.29c-37.781,7.026-82.887,10.71-130.889,10.71
			c-2.652,0-5.308-0.011-7.977-0.034c-64.971-0.548-140.18-8.081-189.351-26.398c-5.154,23.265-7.965,45.539-7.965,65.292
			c0,11.068,0.904,21.929,2.618,32.521c34.168,18.062,110.742,30.848,194.964,31.56c94.596,0.804,174.956-13.212,206.205-35.352
			c1.337-9.39,2.043-18.978,2.043-28.729C458.915,288.89,455.974,266.056,450.598,242.226z"/></g></g><g><g><path d="M402.076,115.941C360.155,41.174,308.278,0,255.999,0c-52.276,0-104.155,41.174-146.078,115.941
			c-17.006,30.329-31.039,64.11-40.912,97.248c38.444,14.855,107.046,24.96,181.656,25.59c82.47,0.718,154.1-9.85,191.823-27.24
			C432.645,178.932,418.8,145.768,402.076,115.941z"/></g></g></svg>