<?xml version="1.0" encoding="utf-8"?><!-- Uploaded to: SVG Repo, www.svgrepo.com, Generator: SVG Repo Mixer Tools -->
<svg version="1.1" id="designs" xmlns="http://www.w3.org/2000/svg" xmlns:xlink="http://www.w3.org/1999/xlink" 
	 width="800px" height="800px" viewBox="0 0 32 32" xml:space="preserve">
<path class="sketchy_een" d="M30.974,5.908c-0.045-0.454-0.093-0.931-0.247-1.364c-0.152-0.431-0.334-0.86-0.591-1.238
	c-0.148-0.221-0.324-0.437-0.524-0.614c-0.261-0.229-0.559-0.387-0.872-0.522c-0.453-0.194-0.913-0.308-1.399-0.378
	c-0.363-0.053-0.719-0.083-1.08-0.083c-0.108,0-0.216,0.003-0.325,0.008c-0.579,0.03-1.133,0.18-1.68,0.354
	c-0.561,0.18-1.107,0.385-1.637,0.641c-0.468,0.229-0.903,0.506-1.336,0.793c-0.486,0.324-0.98,0.626-1.482,0.921
	c-0.045,0.027-0.087,0.058-0.124,0.092c-1.534,0.995-3.09,1.957-4.6,2.995c-1.482,1.016-2.862,2.165-4.224,3.335
	c-0.648,0.559-1.279,1.134-1.915,1.704c-0.629,0.564-1.222,1.174-1.811,1.779c-0.573,0.591-1.194,1.136-1.769,1.724
	c-0.577,0.595-1.095,1.245-1.621,1.882c-0.548,0.666-1.022,1.379-1.431,2.138c-0.194,0.36-0.376,0.727-0.548,1.097
	c-0.192,0.413-0.379,0.848-0.504,1.287c-0.237,0.83-0.302,1.67-0.223,2.528c0.045,0.473,0.115,0.945,0.253,1.403
	c0.14,0.451,0.354,0.885,0.591,1.293c0.087,0.152,0.194,0.291,0.302,0.429c0.158,0.205,0.316,0.403,0.504,0.579
	c0.34,0.315,0.769,0.55,1.176,0.769c0.385,0.207,0.797,0.363,1.206,0.51c0.356,0.13,0.723,0.198,1.095,0.249
	c0.271,0.038,0.54,0.071,0.814,0.073c0.271,0.002,0.54-0.047,0.806-0.085c0.391-0.059,0.773-0.154,1.15-0.272
	c0.808-0.253,1.554-0.653,2.295-1.051c1.073-0.572,2.054-1.317,2.981-2.099c0.459-0.386,0.893-0.801,1.328-1.212
	c0.381-0.361,0.779-0.703,1.193-1.028c0.701-0.534,1.416-1.054,2.1-1.609c0.652-0.53,1.297-1.065,1.925-1.623
	c0.621-0.555,1.233-1.119,1.85-1.68c0.599-0.54,1.188-1.095,1.729-1.694c1.123-1.245,2.18-2.566,3.153-3.93
	c0.49-0.684,0.951-1.386,1.431-2.074c0.498-0.717,0.961-1.451,1.36-2.229c0.198-0.387,0.374-0.785,0.476-1.212
	c0.103-0.435,0.168-0.878,0.213-1.326C31.003,6.752,31.017,6.325,30.974,5.908z M29.278,7.448c-0.064,0.423-0.152,0.836-0.301,1.237
	c-0.217,0.456-0.453,0.903-0.713,1.336c-0.287,0.478-0.609,0.931-0.923,1.391c-0.281,0.409-0.549,0.828-0.826,1.238
	c-0.287,0.426-0.594,0.839-0.907,1.247c-0.984,1.233-2.014,2.432-3.121,3.554c-1.166,1.182-2.411,2.287-3.669,3.366
	c-0.563,0.483-1.134,0.958-1.715,1.419c-0.785,0.597-1.606,1.159-2.337,1.822c-0.366,0.332-0.716,0.68-1.081,1.014
	c-0.375,0.341-0.763,0.667-1.161,0.983c-0.503,0.383-1.019,0.748-1.563,1.069c-0.569,0.336-1.168,0.627-1.77,0.901
	c-0.563,0.222-1.135,0.381-1.734,0.476c-0.357,0.033-0.705,0.026-1.06-0.012c-0.38-0.064-0.737-0.17-1.095-0.308
	c-0.451-0.199-0.893-0.431-1.295-0.718c-0.153-0.135-0.29-0.281-0.419-0.438c-0.177-0.254-0.322-0.523-0.451-0.805
	c-0.124-0.345-0.213-0.699-0.271-1.063C2.799,24.6,2.76,24.05,2.81,23.492c0.078-0.463,0.217-0.905,0.39-1.34
	c0.256-0.578,0.532-1.148,0.841-1.698c0.17-0.303,0.344-0.603,0.53-0.897c0.177-0.286,0.384-0.549,0.589-0.817
	c0.476-0.609,0.97-1.208,1.514-1.76c0.283-0.287,0.579-0.564,0.868-0.846c0.298-0.293,0.587-0.595,0.878-0.896
	c1.192-1.233,2.471-2.38,3.769-3.502c0.77-0.667,1.55-1.32,2.353-1.946c0.927-0.695,1.881-1.356,2.851-1.989
	c1.026-0.672,2.099-1.269,3.135-1.925c0.093-0.059,0.171-0.133,0.234-0.217c0.268-0.144,0.537-0.289,0.797-0.449
	c0.253-0.154,0.5-0.316,0.749-0.476c0.448-0.285,0.905-0.536,1.389-0.752c0.326-0.128,0.66-0.234,0.996-0.337
	c0.318-0.097,0.635-0.186,0.961-0.244c0.452-0.044,0.896-0.035,1.349,0.014c0.353,0.057,0.697,0.131,1.035,0.252
	c0.151,0.07,0.298,0.146,0.438,0.236c0.076,0.067,0.146,0.141,0.214,0.217c0.143,0.207,0.259,0.422,0.364,0.651
	c0.115,0.308,0.197,0.617,0.255,0.942C29.371,6.294,29.347,6.867,29.278,7.448z M10.224,21.745
	c-0.192-0.377-0.484-0.722-0.751-1.048c-0.277-0.34-0.561-0.646-0.921-0.901c-0.19-0.133-0.423-0.224-0.642-0.298
	c-0.241-0.081-0.492-0.119-0.745-0.143c-0.022-0.002-0.044-0.003-0.066-0.003c-0.133,0-0.274,0.033-0.399,0.072
	c-0.215,0.067-0.37,0.2-0.544,0.336c-0.158,0.121-0.314,0.289-0.419,0.461c-0.091,0.143-0.152,0.303-0.213,0.464
	c-0.069,0.187-0.021,0.43,0.074,0.6c-0.062,0.205-0.043,0.434,0.07,0.632c0.433,0.761,0.884,1.552,1.558,2.127
	c0.202,0.172,0.431,0.332,0.666,0.459c0.221,0.121,0.465,0.206,0.704,0.287c0.257,0.087,0.514,0.138,0.783,0.166
	c0.14,0.015,0.291-0.026,0.421-0.069c0.146-0.051,0.334-0.15,0.439-0.265c0.215-0.239,0.374-0.504,0.427-0.823
	c0.077-0.462,0.024-0.921-0.134-1.362C10.449,22.2,10.34,21.969,10.224,21.745z M8.702,23.187c-0.152-0.079-0.292-0.173-0.429-0.273
	c-0.121-0.107-0.234-0.219-0.341-0.341c-0.329-0.46-0.606-0.947-0.883-1.442c0.003-0.008,0.006-0.016,0.009-0.024
	c0.001-0.004,0.003-0.008,0.004-0.012c0.002-0.004,0.005-0.008,0.007-0.013c0.048-0.052,0.098-0.101,0.15-0.149
	c0.003,0,0.006,0,0.009,0c0.124,0.025,0.245,0.058,0.364,0.099c0.076,0.038,0.149,0.081,0.22,0.127
	c0.274,0.235,0.51,0.516,0.734,0.8c0.186,0.255,0.348,0.51,0.483,0.794c0.059,0.153,0.111,0.305,0.145,0.465
	c0.002,0.043,0.004,0.085,0.004,0.128C9.018,23.301,8.859,23.248,8.702,23.187z M14.539,17.016c-0.182-0.259-0.379-0.51-0.567-0.763
	c-0.217-0.291-0.433-0.579-0.69-0.834c-0.241-0.239-0.522-0.447-0.804-0.634c-0.413-0.271-0.905-0.377-1.392-0.377
	c-0.406,0-0.751,0.309-0.809,0.702c-0.305,0.172-0.489,0.547-0.379,0.895c0.265,0.834,0.615,1.65,1.107,2.378
	c0.478,0.707,1.042,1.376,1.674,1.951c0.31,0.281,0.652,0.55,1.008,0.771c0.423,0.259,0.982,0.358,1.429,0.097
	c0.548-0.32,0.765-0.941,0.696-1.553c-0.067-0.591-0.35-1.127-0.633-1.639C14.988,17.666,14.765,17.338,14.539,17.016z
	 M13.999,19.378c-0.556-0.447-1.042-0.959-1.49-1.515c-0.162-0.221-0.312-0.448-0.45-0.686c-0.124-0.21-0.225-0.43-0.326-0.651
	c-0.048-0.122-0.093-0.244-0.136-0.367c0.11,0.061,0.215,0.129,0.318,0.202c0.356,0.298,0.647,0.642,0.932,1.004
	c0.492,0.637,0.929,1.3,1.265,2.032c0.01,0.027,0.02,0.054,0.03,0.082C14.094,19.446,14.047,19.412,13.999,19.378z M14.412,19.712
	L14.412,19.712L14.412,19.712L14.412,19.712L14.412,19.712z M21.185,13.986c-0.172-0.365-0.372-0.708-0.605-1.036
	c-0.259-0.367-0.54-0.719-0.816-1.073c-0.249-0.32-0.494-0.643-0.785-0.925c-0.289-0.281-0.638-0.502-0.998-0.68
	c-0.387-0.194-0.808-0.295-1.222-0.401c-0.066-0.016-0.133-0.024-0.199-0.024c-0.349,0-0.674,0.221-0.772,0.575
	c-0.002,0.006-0.003,0.012-0.005,0.017c-0.081-0.004-0.163,0.005-0.246,0.027c-0.409,0.113-0.69,0.571-0.559,0.988
	c0.069,0.219,0.142,0.435,0.227,0.648c0.079,0.202,0.164,0.401,0.267,0.591c0.071,0.13,0.154,0.253,0.233,0.379
	c0.225,0.358,0.466,0.718,0.747,1.036c0.506,0.572,1.038,1.129,1.615,1.631c0.32,0.281,0.652,0.562,1.012,0.789
	c0.174,0.111,0.364,0.194,0.555,0.269c0.19,0.075,0.378,0.103,0.581,0.126c0.346,0.035,0.672-0.154,0.913-0.377
	c0.091-0.087,0.18-0.229,0.243-0.34c0.079-0.134,0.119-0.288,0.146-0.439c0.047-0.263,0.03-0.5-0.004-0.761
	C21.462,14.649,21.339,14.309,21.185,13.986z M19.452,14.848c-0.725-0.582-1.403-1.238-1.996-1.954
	c-0.097-0.135-0.189-0.272-0.279-0.412c-0.145-0.228-0.291-0.464-0.407-0.71c-0.036-0.097-0.07-0.195-0.103-0.293
	c0.177,0.05,0.352,0.105,0.524,0.169c0.211,0.099,0.413,0.216,0.604,0.349c0.437,0.372,0.794,0.841,1.145,1.297
	c0.017,0.021,0.033,0.042,0.05,0.064c0.01,0.014,0.021,0.027,0.031,0.041c0.148,0.189,0.293,0.38,0.423,0.583
	c0.149,0.232,0.276,0.466,0.391,0.712c0.061,0.164,0.113,0.327,0.147,0.499l0,0.004C19.798,15.094,19.623,14.975,19.452,14.848z
	 M25.291,8.416c-0.498-0.696-1.198-1.23-1.941-1.644c-0.346-0.194-0.739-0.306-1.109-0.439c-0.068-0.025-0.138-0.036-0.208-0.036
	c-0.306,0-0.601,0.222-0.709,0.505c-0.345,0.155-0.579,0.568-0.452,0.944c0.281,0.832,0.672,1.597,1.253,2.263
	c0.247,0.281,0.506,0.551,0.791,0.798c0.306,0.263,0.617,0.526,0.982,0.7c0.383,0.18,0.838,0.291,1.247,0.126
	c0.15-0.059,0.289-0.121,0.405-0.241c0.085-0.089,0.158-0.186,0.229-0.288c0.178-0.257,0.229-0.634,0.214-0.935
	c-0.022-0.429-0.148-0.83-0.348-1.206C25.544,8.773,25.416,8.592,25.291,8.416z M24.221,9.887c-0.398-0.326-0.762-0.679-1.09-1.074
	c-0.113-0.158-0.222-0.32-0.316-0.492c-0.029-0.053-0.056-0.106-0.082-0.16c0.244,0.135,0.478,0.289,0.703,0.453
	c0.223,0.183,0.428,0.376,0.613,0.596c0.132,0.185,0.256,0.375,0.357,0.58c0.03,0.088,0.052,0.175,0.07,0.265
	C24.389,10.003,24.305,9.947,24.221,9.887z M24.705,10.161L24.705,10.161c0.009-0.004,0.019-0.008,0.029-0.012
	C24.725,10.153,24.715,10.157,24.705,10.161z"/>
</svg>