<?xml version="1.0" encoding="iso-8859-1"?><!--Uploaded to: SVG Repo, www.svgrepo.com, Generator: SVG Repo Mixer Tools--><svg xmlns="http://www.w3.org/2000/svg" xmlns:xlink="http://www.w3.org/1999/xlink" xml:space="preserve" id="Layer_1" width="800px" height="800px" fill="#000000" version="1.1" viewBox="0 0 511.999 511.999"><g><g><path d="M359.858,72.281C345.235,45.287,315.564,0,281.155,0c-11.83,0-28.285,5.333-39.504,30.737
			c-9.822,22.239-30.653,37.355-52.706,53.357c-31.157,22.608-66.083,47.963-72.207,97.487H395.39
			C392.125,148.258,379.135,107.868,359.858,72.281z"/></g></g><g><g><path d="M76.516,212.949c3.611,45.008,22.145,96.516,50.191,138.096c32.377,48.001,72.221,76.827,113.606,82.675v46.909H197.19
			c-8.662,0-15.685,7.023-15.685,15.685c0,8.662,7.023,15.685,15.685,15.685h117.617c8.662,0,15.685-7.023,15.685-15.685
			c0-8.662-7.023-15.685-15.685-15.685h-43.124V433.72c41.384-5.849,81.23-34.674,113.607-82.675
			c28.045-41.58,46.579-93.087,50.192-138.096H76.516z"/></g></g></svg>