<?xml version="1.0" encoding="iso-8859-1"?><!--Uploaded to: SVG Repo, www.svgrepo.com, Generator: SVG Repo Mixer Tools--><svg xmlns="http://www.w3.org/2000/svg" xmlns:xlink="http://www.w3.org/1999/xlink" xml:space="preserve" id="Layer_1" width="800px" height="800px" fill="#000000" version="1.1" viewBox="0 0 512.004 512.004"><g><g><path d="M443.261,206.283c-4.612-10.637-20.406-32.574-69.557-21.98c2.042-4.527,4.204-9.063,6.595-13.607
			c5.412-5.25,8.458-11.079,8.458-17.513c0-13.079-11.752-24.15-34.787-32.94l67.336-98.412c1.574-2.298,1.923-5.216,0.928-7.82
			c-0.996-2.604-3.174-4.561-5.889-5.242l-34.038-8.509c-3.446-0.877-7.071,0.519-9.08,3.455l-47.985,70.135
			c-4.178-11.735-11.301-23.971-19.495-35.085c9.743-2.995,20.542-4.714,31.953-4.714c4.706,0,8.509-3.812,8.509-8.509
			c0-4.697-3.804-8.51-8.509-8.51c-15.623,0-30.328,2.834-43.296,7.778c-11.811-13.181-23.903-22.857-31.383-24.576
			c-2.502-0.579-5.182,0.017-7.208,1.634c-2.025,1.608-3.208,4.059-3.208,6.654c0,8.033-14.56,17.019-34.038,17.019
			c-24.261,0-42.548,10.977-42.548,25.529c0,17.24-12.611,41.288-40.505,42.437l-29.273-39.042
			c-2.715-3.608-7.778-4.485-11.53-1.974L69.183,69.509c-1.932,1.285-3.251,3.302-3.659,5.582s0.136,4.629,1.498,6.51l29.213,40.173
			c-20.457,8.526-30.838,19.061-30.838,31.409c0,6.059,2.74,11.581,7.565,16.585c0.026,0.051,0.06,0.136,0.085,0.187
			c27.35,51.525,31.706,102.182,33.74,139.479c3.123,57.397,5.523,100.123,94.779,106.65c-0.102,3.115-0.34,6.135-0.706,9.046
			c-44.692,3.404-92.915,16.304-92.915,42.939c0,28.839,59.932,43.935,119.133,43.935c59.201,0,119.133-15.087,119.133-43.935
			c0-26.073-48.555-39.646-92.932-43.305c-0.306-2.791-0.468-5.701-0.528-8.697c53.721-3.957,75.947-21.053,85.767-46.59
			c1.353,2.919,4.28,4.953,7.693,4.953c0.043,0,0.085,0,0.128,0c4.697-0.068,8.45-3.931,8.382-8.629
			c-0.46-31.681,23.027-66.306,63.872-94.651C441.414,257.774,452.723,228.067,443.261,206.283z M289.622,45.428
			c11.752,15.036,22.227,33.23,22.508,47.585l-43.007,62.86c-0.451-2.723-1.234-5.438-2.264-8.101
			c0.204-0.187,0.46-0.281,0.647-0.485c6.859-7.778,10.637-17.768,10.637-28.141c0-13.862-6.765-26.082-17.053-33.851
			c0-0.068,0.034-0.119,0.034-0.187C261.123,69.092,272.262,54.788,289.622,45.428z M282.261,184.286
			c-16.338,1.804-34.676,2.936-55.184,2.936c-29.247,0-54.333-2.195-75.011-5.565c3.557-6.578,13.045-11.454,23.954-11.454
			c28.754,0,52.138-13.845,58.094-32.915c10.824,3.497,18.491,14.611,18.491,24.405c0,0.893,0.145,1.787,0.425,2.646
			C256.698,175.563,267.829,181.324,282.261,184.286z M193.039,51.069c0-2.119,9.054-8.51,25.529-8.51
			c21.997,0,40.335-8.824,47.653-21.572c3.523,2.749,7.778,6.731,12.254,11.462C260.009,43.453,247.44,59.485,244.7,77.636
			c-2.953-0.655-5.982-1.038-9.114-1.038c-23.461,0-42.548,19.087-42.548,42.548c0,10.237,3.736,20.057,10.348,27.732
			c-6.476,3.344-14.509,5.514-23.299,6.05l-32.881-43.841C175.833,102.526,193.039,75.951,193.039,51.069z M82.415,153.183
			c0-3.114,5.369-10.024,24.193-17.155l29.307,40.301c-0.289,0.672-0.57,1.353-0.8,2.042
			C100.668,170.798,82.415,160.059,82.415,153.183z M269.624,476.545c4.706,0,8.51-3.812,8.51-8.51c0-4.697-3.804-8.509-8.51-8.509
			c-3.991,0-8.952-6.561-12.492-16.968c50.172,4.629,72.059,18.934,72.059,25.511c0,9.131-36.038,26.916-102.114,26.916
			c-66.076,0-102.114-17.776-102.114-26.916c0-7.327,24.099-21.104,71.99-25.52c-3.565,10.39-8.51,16.968-12.424,16.968
			c-4.706,0-8.51,3.812-8.51,8.51c0,4.697,3.804,8.51,8.51,8.51c19.402,0,34.038-25.605,34.038-59.567
			c0-0.043-0.017-0.068-0.026-0.111c2.791,0.06,5.599,0.111,8.535,0.111c2.927,0,5.735-0.051,8.518-0.111
			c0,0.034-0.009,0.077-0.009,0.111C235.586,450.931,250.223,476.545,269.624,476.545z M330.374,308.507
			c-0.213,3.863-0.417,7.599-0.638,11.216c-9.616,7.982-50.989,37.876-97.57,5.335c-41.365-30.872-82.738-24.354-107.986-9.463
			c-0.128-2.323-0.264-4.672-0.391-7.08c-0.791-14.619-1.659-30.575-3.974-47.696c18.176-16.134,61.694-28.898,102.386,1.464
			c16.908,11.811,33.919,16.16,49.815,16.16c25.563,0,48.164-11.25,62.8-20.814C332.169,275.95,331.216,292.995,330.374,308.507z
			 M336.033,170.245c-4.893,0.034-10.484,0.077-16.279,0.008l24.652-36.029c0.689,0.553,1.413,1.089,2.289,1.413
			c19.768,7.318,25.043,14.466,25.043,17.547c0,4.68-8.51,11.139-24.695,17.189c-0.289-0.026-0.536-0.17-0.834-0.17L336.033,170.245
			z M409.444,256.812c-30.387,21.07-52.036,45.534-63.158,70.484c0.425-5.769,0.749-11.726,1.089-17.861
			c1.574-28.975,4.459-66.247,18.474-105.594c32.072-9.497,55.193-6.076,61.813,9.224
			C433.747,227.097,425.485,247.375,409.444,256.812z"/></g></g></svg>