<?xml version="1.0" encoding="UTF-8"?>
<svg version="1.1" xmlns="http://www.w3.org/2000/svg" width="512" height="512">
<path d="M0 0 C1.20506699 -0.01475876 1.20506699 -0.01475876 2.43447876 -0.02981567 C35.76003993 -0.35320141 67.68669653 3.34638704 98.41796875 17.23828125 C99.1464502 17.56022461 99.87493164 17.88216797 100.62548828 18.21386719 C121.47655395 27.47621182 140.54098969 39.65296522 157.26953125 55.2421875 C159.22837747 57.06213371 161.2409275 58.77545498 163.29296875 60.48828125 C166.98863005 63.7087861 170.33225339 67.21561942 173.66796875 70.80078125 C174.17569824 71.3431543 174.68342773 71.88552734 175.20654297 72.44433594 C183.44861358 81.43023639 183.44861358 81.43023639 183.35546875 86.92578125 C182.02728209 91.61870745 182.02728209 91.61870745 179.41796875 93.23828125 C176.60546875 94.17578125 176.60546875 94.17578125 173.41796875 94.23828125 C168.46064107 91.4744013 165.33991395 88.0752592 161.85546875 83.73828125 C134.10523986 50.46143182 93.29646005 29.36450602 51.41796875 20.23828125 C50.6094043 20.05894043 49.80083984 19.87959961 48.96777344 19.69482422 C15.45313782 12.64905427 -21.38603307 16.50628186 -53.58203125 27.23828125 C-54.7110083 27.61460693 -54.7110083 27.61460693 -55.86279297 27.99853516 C-81.11696186 36.65408566 -103.70986006 50.57269948 -123.58203125 68.23828125 C-124.57332031 69.10710937 -125.56460938 69.9759375 -126.5859375 70.87109375 C-132.01273915 75.69983971 -136.98711332 80.61812808 -141.58203125 86.23828125 C-142.484375 87.3046875 -143.38671875 88.37109375 -144.2890625 89.4375 C-160.63578137 109.02687412 -171.71164966 131.44837534 -180.58203125 155.23828125 C-179.3703125 155.42261719 -178.15859375 155.60695312 -176.91015625 155.796875 C-166.30914062 157.57634263 -157.08692658 160.28537398 -147.47167969 165.15209961 C-138.97998327 169.36515108 -131.66666024 170.24091368 -122.58203125 167.23828125 C-119.77738887 166.06192807 -117.09418095 164.69851753 -114.39453125 163.30078125 C-98.13438444 155.3176153 -81.98980184 154.23627647 -64.58203125 159.23828125 C-58.99472702 161.24089925 -53.69968436 163.59874351 -48.51953125 166.48828125 C-42.52600546 169.53478295 -35.63713481 170.15790492 -29.20703125 168.17578125 C-24.29431738 166.26869912 -19.56634074 163.90766119 -14.80078125 161.6640625 C1.21700388 154.56880574 18.2062597 154.39882738 34.6171875 160.41015625 C39.0523466 162.21315694 43.30293621 164.1532783 47.48046875 166.48828125 C53.73941448 169.66310879 60.63217012 169.9888056 67.35546875 168.17578125 C72.29295699 166.47778609 76.83228303 164.0586039 81.4609375 161.6640625 C95.21776758 155.03098063 111.78063959 154.24199209 126.37548828 158.52197266 C131.4049917 160.28584584 136.18191741 162.70348485 140.93408203 165.10131836 C147.81385595 168.57146192 154.12586087 170.70134425 161.890625 168.5546875 C166.91390164 166.81280308 171.54486192 164.68101903 176.23046875 162.17578125 C184.796379 157.75898378 193.96442985 156.54428346 203.41796875 155.23828125 C200.37357639 146.67016184 197.11352161 138.27790928 193.23046875 130.05078125 C192.89789063 129.3451001 192.5653125 128.63941895 192.22265625 127.91235352 C190.82871493 125.0037606 189.42040411 122.24217337 187.70703125 119.50390625 C185.60714463 115.81319644 185.95085292 113.44232372 186.41796875 109.23828125 C187.98046875 106.73828125 187.98046875 106.73828125 190.41796875 105.23828125 C193.91796875 104.73828125 193.91796875 104.73828125 197.41796875 105.23828125 C201.54601773 108.48713116 203.71188766 112.91901814 206.10546875 117.48828125 C206.53537109 118.30514404 206.96527344 119.12200684 207.40820312 119.96362305 C211.87434279 128.71689714 215.27842814 137.83614013 218.60546875 147.0703125 C218.93369629 147.97604004 219.26192383 148.88176758 219.60009766 149.81494141 C220.41796875 152.23828125 220.41796875 152.23828125 221.19140625 155.6875 C223.08064643 159.61639758 226.16441312 160.56630162 230.04296875 162.23828125 C231.50781186 162.92152906 232.97009659 163.61029044 234.4296875 164.3046875 C235.12626465 164.63484863 235.8228418 164.96500977 236.54052734 165.30517578 C240.25389086 167.15075125 243.34445597 169.48017262 246.41796875 172.23828125 C247.15273438 172.88152344 247.8875 173.52476562 248.64453125 174.1875 C260.47251071 185.20453103 267.09552414 199.90378732 267.86621094 215.98120117 C268.06225819 223.15810835 268.02017679 230.33138906 267.93615723 237.50946045 C267.91184556 240.2379964 267.91743992 242.96613319 267.92342377 245.69474506 C267.92725918 248.99714768 267.90638821 252.29921389 267.88671875 255.6015625 C267.88651733 256.80702225 267.88631592 258.01248199 267.8861084 259.25447083 C267.67284281 274.65136912 262.26500102 290.8917146 251.41796875 302.23828125 C246.31650255 306.9280785 241.22309336 310.90537454 235.04296875 314.05078125 C231.06033537 316.36008855 229.58876613 318.2610169 227.93359375 322.5390625 C227.30928467 324.14382446 227.30928467 324.14382446 226.67236328 325.78100586 C224.52761924 331.69220095 222.52608511 337.64629925 220.54296875 343.61328125 C215.91061799 357.31902509 211.19460594 370.26624737 201.41796875 381.23828125 C200.84820312 381.90085937 200.2784375 382.5634375 199.69140625 383.24609375 C186.58282744 397.47029629 168.41710222 404.2529759 149.38852739 405.42484915 C146.34514508 405.49546197 143.3074188 405.5099579 140.26324463 405.49897766 C139.11256996 405.50280321 137.96189529 405.50662876 136.77635169 405.51057023 C132.95925173 405.52080614 129.14230485 405.51692605 125.32519531 405.51293945 C122.57256644 405.51620104 119.81994582 405.52241223 117.06732178 405.52842712 C110.38911868 405.5411214 103.7109559 405.54297439 97.03274277 405.54062686 C91.5988885 405.53883743 86.16504637 405.54060669 80.73119354 405.5448513 C79.95521133 405.54544649 79.17922912 405.54604168 78.3797323 405.54665491 C76.80285567 405.54786677 75.22597904 405.54908091 73.64910242 405.55029728 C58.88868419 405.56115275 44.12828885 405.55901993 29.36786935 405.55291244 C15.89744387 405.54774642 2.42709078 405.55899396 -11.04332039 405.57801066 C-24.91020303 405.59743535 -38.77705152 405.60563687 -52.64394784 405.6018874 C-60.41489562 405.5999822 -68.18578184 405.60239605 -75.95671844 405.61660194 C-82.57319845 405.62857604 -89.189579 405.62985374 -95.80606052 405.61781178 C-99.17435608 405.61196463 -102.54232304 405.61236582 -105.91062927 405.62281418 C-133.35883188 405.70177247 -156.12470915 403.04944601 -176.89453125 383.48828125 C-187.00390584 372.82272748 -196.29424035 356.22550297 -197.58203125 341.23828125 C-196.20809395 338.35955548 -194.83213688 336.48838688 -192.58203125 334.23828125 C-189.11843962 333.77646903 -187.18534462 333.89681931 -184.125 335.62890625 C-180.48658446 339.36233418 -179.3490016 343.4860494 -177.70703125 348.36328125 C-174.90818472 356.15869516 -172.11196181 362.94030477 -166.58203125 369.23828125 C-165.83953125 370.15867187 -165.83953125 370.15867187 -165.08203125 371.09765625 C-156.07155797 381.27949105 -141.85657548 386.92271258 -128.58203125 388.23828125 C-124.78942679 388.38460178 -120.99965755 388.38182677 -117.20457458 388.37872314 C-116.06507687 388.38169427 -114.92557916 388.38466539 -113.75155121 388.38772655 C-109.93649217 388.3963922 -106.12146458 388.39792 -102.30639648 388.39941406 C-99.56949174 388.40350789 -96.83259028 388.40904835 -94.09568787 388.41445923 C-86.66151678 388.4280144 -79.22735112 388.434063 -71.79316974 388.43846989 C-67.14613465 388.44123734 -62.49910163 388.44547563 -57.85206795 388.44997406 C-44.97140731 388.46216354 -32.09074833 388.47246317 -19.21008205 388.47584915 C-18.38641862 388.47606872 -17.56275519 388.47628828 -16.71413225 388.4765145 C-15.88855995 388.47673278 -15.06298764 388.47695106 -14.21239799 388.47717595 C-12.53962926 388.47761941 -10.86686053 388.47806597 -9.1940918 388.47851562 C-7.94947988 388.47884777 -7.94947988 388.47884777 -6.67972428 388.47918662 C6.75430638 388.48313164 20.18828271 388.50057806 33.62229241 388.52387515 C47.43359533 388.54763204 61.24487104 388.56005299 75.05619472 388.56121707 C82.80310874 388.56213145 90.54995196 388.56782364 98.29684639 388.58603668 C104.89561806 388.60149641 111.49429704 388.60652374 118.09308339 388.59829858 C121.45489558 388.59441255 124.81637094 388.5968785 128.17818451 388.60935593 C150.30356153 388.686629 170.46667077 388.03290618 187.25 371.578125 C199.48590171 358.37216982 204.0340042 340.08905493 209.41796875 323.23828125 C207.49597656 323.10873047 207.49597656 323.10873047 205.53515625 322.9765625 C191.98932268 321.93093764 181.25483947 319.34568782 169.10546875 312.98828125 C160.78118725 308.70469873 154.29353221 308.6464079 145.41796875 311.23828125 C142.58675392 312.40116597 139.88814089 313.77586672 137.16796875 315.17578125 C122.17102744 322.49120221 106.37115412 324.68833194 90.046875 320.5 C84.37838771 318.52914812 78.96124524 316.00842986 73.57128906 313.37524414 C65.19731451 309.36236756 58.39826662 308.32262559 49.41796875 311.23828125 C46.59169541 312.41238315 43.8880035 313.77593742 41.16796875 315.17578125 C24.4401933 323.33549306 7.21340787 324.72655399 -10.49951172 319.00537109 C-15.03046863 317.33640666 -19.37370163 315.2072644 -23.64819336 312.96875 C-30.71853122 309.34408859 -36.60078704 308.53284009 -44.34570312 310.51220703 C-48.03042975 311.7085364 -51.39461235 313.40674149 -54.83203125 315.17578125 C-71.56134057 323.33624127 -88.78920072 324.72574475 -106.50390625 319.00537109 C-111.00631742 317.34341434 -115.32301286 315.2153906 -119.56030273 312.96875 C-126.47045943 309.40879217 -133.41168236 308.38008529 -141.00390625 310.3046875 C-144.95180926 311.73430692 -148.62357871 313.68581409 -152.33837891 315.62548828 C-157.28702079 318.18244334 -162.16671378 319.97890509 -167.58203125 321.23828125 C-168.71318359 321.51091797 -168.71318359 321.51091797 -169.8671875 321.7890625 C-187.43915455 324.69665417 -204.82273337 320.28580075 -219.453125 310.2734375 C-232.61595731 300.17767291 -241.98574114 285.73009904 -244.58203125 269.23828125 C-244.89224052 264.75767493 -244.93331868 260.2871819 -244.953125 255.796875 C-244.96215347 254.51579361 -244.97118195 253.23471222 -244.98048401 251.91481018 C-244.99688431 249.21100362 -245.00465676 246.50731946 -245.00756836 243.8034668 C-245.0118616 241.063813 -245.0326253 238.3251057 -245.0690918 235.58569336 C-245.37270759 212.36493188 -243.95758263 192.54150941 -227.01953125 174.98828125 C-220.231603 168.27940832 -212.02408994 162.93569893 -202.875 160.08203125 C-198.1369411 157.4291679 -197.63169317 154.34101183 -196.20703125 149.30078125 C-195.63109951 147.48201461 -195.04752409 145.66565391 -194.45703125 143.8515625 C-194.15539062 142.92037598 -193.85375 141.98918945 -193.54296875 141.02978516 C-182.14189325 107.90989255 -159.70497199 75.42022115 -132.58203125 53.23828125 C-131.751875 52.50867188 -130.92171875 51.7790625 -130.06640625 51.02734375 C-98.20829503 23.4343895 -58.12173267 6.93074222 -16.58203125 1.23828125 C-15.35548828 1.06627197 -14.12894531 0.8942627 -12.86523438 0.71704102 C-8.57178297 0.18728059 -4.32274071 0.04382749 0 0 Z M-219.58203125 191.23828125 C-227.99026982 202.74912313 -229.7292001 215.0670294 -229.75 228.97265625 C-229.7533284 229.77253967 -229.7566568 230.5724231 -229.76008606 231.39654541 C-229.76511098 233.07718335 -229.76749577 234.75783112 -229.76733398 236.43847656 C-229.76951401 238.96827188 -229.78769972 241.49762559 -229.80664062 244.02734375 C-229.86792678 261.40607312 -228.35548681 277.4360409 -216.20703125 290.86328125 C-215.34078125 291.64703125 -214.47453125 292.43078125 -213.58203125 293.23828125 C-213.0921875 293.72039062 -212.60234375 294.2025 -212.09765625 294.69921875 C-202.75799501 303.46071049 -190.60462837 306.7926459 -178.0703125 306.546875 C-169.17997431 305.76038372 -161.49708303 302.84873505 -153.70703125 298.61328125 C-142.95656409 293.03362044 -132.03834298 291.98838733 -120.234375 294.9765625 C-115.1725054 296.72520836 -110.38411538 298.93268147 -105.61743164 301.36865234 C-94.65629378 306.93566974 -82.98973278 308.06344237 -71.08203125 304.67578125 C-66.35738337 303.0818553 -62.14715457 300.98800556 -57.76953125 298.61328125 C-47.12486732 293.10128935 -35.15818628 291.62652088 -23.58203125 295.23828125 C-20.48563049 296.39744666 -17.54470746 297.77442943 -14.58203125 299.23828125 C-0.09021741 306.16191684 12.43904593 308.92231469 28.2421875 303.51953125 C32.51997175 301.79368471 36.60128437 299.78659859 40.6640625 297.60546875 C50.82074199 292.5631456 62.61613834 291.91650624 73.41796875 295.23828125 C77.54805151 296.98131769 81.57565965 298.92633802 85.56860352 300.96240234 C96.86916166 306.68656832 108.50214842 308.22051479 120.85546875 304.67578125 C125.7763812 303.00351015 130.37821493 300.87740495 135.04296875 298.61328125 C146.38922883 293.16386412 157.20307857 291.86205564 169.41796875 295.23828125 C173.9301883 296.96127434 178.2058711 299.15879917 182.515625 301.328125 C193.62478701 306.88939344 205.10906501 307.98242402 217.10546875 304.61328125 C223.07303701 302.57839098 228.23494454 299.80404602 233.41796875 296.23828125 C234.32546875 295.61953125 235.23296875 295.00078125 236.16796875 294.36328125 C246.94993788 284.18031041 251.84999786 270.61790143 252.51815796 256.05453491 C252.56449783 253.85874023 252.58266613 251.66502676 252.5859375 249.46875 C252.5892659 248.6664949 252.5925943 247.86423981 252.59602356 247.03767395 C252.60104803 245.35283983 252.60343329 243.66799591 252.60327148 241.9831543 C252.60545449 239.44237417 252.62364884 236.90203159 252.64257812 234.36132812 C252.70823604 215.35655839 250.48733843 199.85085533 237.10546875 185.48828125 C227.89080696 176.82405279 215.97315054 172.23832148 203.35546875 171.73828125 C193.73440943 172.13279559 185.27401414 175.73003512 176.73046875 179.86328125 C165.60920867 185.20917722 154.92341186 186.93218804 142.7578125 183.484375 C140.24562003 182.50809207 137.84191335 181.41699821 135.41796875 180.23828125 C119.95256406 172.82777484 107.90189849 169.69147431 91 174.890625 C87.23975529 176.30532994 83.77652478 177.9917922 80.23046875 179.86328125 C69.21052055 185.58187352 58.0823064 186.84462672 46.0546875 183.2265625 C40.91628198 181.31249135 36.02834168 179.08238199 31.16796875 176.55078125 C20.65152848 171.1742089 8.81568367 170.66644408 -2.46875 174.046875 C-6.45766354 175.57337265 -10.24679242 177.42703512 -14.08203125 179.30078125 C-25.75477647 184.96799289 -36.67050117 186.91850759 -49.5 183.44921875 C-54.05865472 181.86751345 -58.30730682 179.90402343 -62.58203125 177.67578125 C-74.50099025 171.58470441 -86.528737 170.58356388 -99.42578125 174.11328125 C-104.30367527 175.85193654 -108.79328272 178.17877772 -113.35546875 180.6171875 C-123.68685008 185.80789362 -134.96282836 186.38090921 -146.08203125 183.46484375 C-151.0674036 181.71773781 -155.78869046 179.50065673 -160.49536133 177.10766602 C-181.52021994 166.51612035 -204.79890332 173.70809698 -219.58203125 191.23828125 Z " fill="#000000" transform="translate(244.58203125,53.76171875)"/>
<path d="M0 0 C4.97668311 4.08963543 7.27060121 8.43881359 7.9453125 14.828125 C8.50999638 28.06055051 2.3617882 38.4844857 -6.3125 48.01171875 C-15.06821454 56.51386064 -26.17552774 60.80733277 -38.2734375 60.66015625 C-44.4100602 60.10801796 -48.49161022 57.54442028 -52.6875 53.13671875 C-57.47889775 46.97448513 -57.76838694 40.75018971 -56.83984375 33.17578125 C-54.47468526 20.66672077 -46.82600584 10.54998759 -36.75 3.0390625 C-25.75232115 -4.4160948 -11.65712115 -8.20228887 0 0 Z M-32.3125 20.38671875 C-36.67555975 25.85083367 -41.53353925 32.48169196 -41.125 39.69921875 C-40.5069634 42.50706962 -40.5069634 42.50706962 -38.3125 44.38671875 C-31.24631365 45.58947387 -26.07940641 42.22281726 -20.3125 38.38671875 C-13.45361514 33.10768939 -9.04779293 26.0190642 -7.6875 17.44921875 C-8.01099167 14.21549253 -8.01099167 14.21549253 -10.6875 12.44921875 C-17.6647581 9.62509047 -27.24102259 15.47683254 -32.3125 20.38671875 Z " fill="#000000" transform="translate(194.3125,109.61328125)"/>
<path d="M0 0 C9.91276569 7.54323613 17.01305927 17.42963139 19.12109375 29.79296875 C19.86238254 37.33130557 18.83582212 43.22629924 14.375 49.375 C9.47997293 54.30939726 5.27445445 56.6654076 -1.6875 56.75 C-15.33977563 56.50539036 -26.1601074 49.67634553 -35.4765625 40.08203125 C-42.85111153 30.79009947 -46.76463616 20.23684676 -45.625 8.375 C-43.93842574 2.10094377 -41.1667473 -2.06991683 -35.625 -5.625 C-23.2927326 -11.7911337 -10.73310764 -7.31802794 0 0 Z M-27.875 8.4375 C-29.89424012 10.33213961 -29.89424012 10.33213961 -30.1875 13.4375 C-29.10310579 21.02825944 -25.41278435 27.57024186 -19.78125 32.76953125 C-13.76557375 37.24859455 -7.28937266 41.07077284 0.375 40.375 C2.59803517 39.05234485 2.59803517 39.05234485 3.375 36.375 C3.0033622 28.49318176 -0.9563556 22.31050884 -6.125 16.625 C-7.3625 15.51125 -7.3625 15.51125 -8.625 14.375 C-9.388125 13.67375 -10.15125 12.9725 -10.9375 12.25 C-15.80903232 8.85125652 -22.0604297 5.69173069 -27.875 8.4375 Z " fill="#000000" transform="translate(355.625,113.625)"/>
<path d="M0 0 C8.1583127 5.22366784 12.56606224 14.0004235 14.76391602 23.16503906 C15.47189563 27.0273623 15.51161047 30.84805929 15.484375 34.765625 C15.47700317 36.02016479 15.47700317 36.02016479 15.46948242 37.30004883 C15.25822556 48.43166051 12.09078524 56.85685098 4.671875 65.203125 C-1.44474432 70.5551669 -5.88856158 71.69105041 -13.84765625 71.60546875 C-20.21715071 71.14633088 -23.68153678 67.97369619 -27.828125 63.390625 C-28.50875 62.648125 -29.189375 61.905625 -29.890625 61.140625 C-37.52123451 50.31008247 -37.79793886 38.18846835 -36.828125 25.390625 C-34.8675723 14.33310776 -29.99589654 5.88446317 -20.828125 -0.609375 C-13.61245819 -3.90348376 -6.97364819 -3.41468291 0 0 Z M-15.390625 15.390625 C-21.90379456 23.40683368 -21.73484791 32.53624083 -20.828125 42.390625 C-19.515893 47.3771066 -17.27578596 52.51272673 -12.828125 55.390625 C-9.76315851 55.71356977 -9.76315851 55.71356977 -6.828125 54.390625 C-1.84882747 48.44313073 -0.43501077 42.18972576 -0.453125 34.578125 C-0.45473633 33.87397461 -0.45634766 33.16982422 -0.45800781 32.44433594 C-0.62704898 25.24848536 -2.46394829 20.41972641 -6.828125 14.828125 C-10.21107865 12.39662706 -12.23603793 12.92850826 -15.390625 15.390625 Z " fill="#000000" transform="translate(266.828125,125.609375)"/>
</svg>
