<?xml version="1.0" encoding="iso-8859-1"?><!--Uploaded to: SVG Repo, www.svgrepo.com, Generator: SVG Repo Mixer Tools--><svg xmlns="http://www.w3.org/2000/svg" xmlns:xlink="http://www.w3.org/1999/xlink" xml:space="preserve" id="Layer_1" width="800px" height="800px" fill="#000000" version="1.1" viewBox="0 0 512.001 512.001"><g><g><path d="M495.299,22.268H194.786c-7.663,0-14.337,5.212-16.195,12.646l-5.185,20.744H16.705
			c-11.368,0-19.441,11.159-15.837,21.972L33.4,175.226v264.421c0,27.618,22.467,50.085,50.085,50.085
			c137.544,0,230.797,0,345.033,0c27.618,0,49.974-22.467,49.974-50.085V174.574l33.002-131.561
			C514.13,32.493,506.145,22.268,495.299,22.268z M144.701,456.342H83.486c-9.206,0-16.806-7.489-16.806-16.695V189.22h78.022
			V456.342z M340.151,284.5c-6.521,6.521-17.087,6.521-23.608,0c-3.261-3.258-4.892-7.531-4.892-11.803
			c0,4.273-1.631,8.546-4.892,11.803c-6.522,6.522-17.086,6.522-23.608,0l-4.892-4.892v59.868c0,9.222-7.478,16.695-16.695,16.695
			c-9.217,0-16.806-7.473-16.806-16.695v-59.868l-4.78,4.892c-6.521,6.521-17.087,6.521-23.608,0
			c-6.521-6.516-6.521-17.091,0-23.608l33.38-33.38c6.454-6.463,17.06-6.576,23.627,0l33.38,33.38
			c3.261,3.258,4.892,7.531,4.892,11.803c0-4.273,1.631-8.546,4.892-11.803l33.38-33.38c6.454-6.463,17.06-6.576,23.627,0
			l33.38,33.38c6.526,6.516,6.526,17.091,0.004,23.608c-6.522,6.522-17.086,6.522-23.608,0l-4.892-4.892v59.868
			c0,9.222-7.478,16.695-16.695,16.695c-9.217,0-16.806-7.473-16.806-16.695v-59.868L340.151,284.5z M395.128,422.952H228.177
			c-9.217,0-16.695-7.473-16.695-16.695s7.478-16.695,16.695-16.695h166.951c9.217,0,16.695,7.473,16.695,16.695
			S404.346,422.952,395.128,422.952z M448.877,155.83H182.776l25.043-100.171h266.101L448.877,155.83z"/></g></g></svg>