<?xml version="1.0" encoding="UTF-8"?>
<svg version="1.1" xmlns="http://www.w3.org/2000/svg" width="512" height="512">
<path d="M0 0 C2.88330643 1.30683699 4.94564108 2.69722137 7.17645264 4.9359436 C7.77935623 5.53609787 8.38225983 6.13625214 9.00343323 6.7545929 C9.65295456 7.41130478 10.30247589 8.06801666 10.97167969 8.74462891 C11.6647673 9.43742447 12.35785492 10.13022003 13.07194519 10.8440094 C15.36002799 13.13348474 17.64094651 15.4299613 19.921875 17.7265625 C21.5075592 19.31597709 23.09368574 20.90495048 24.68023682 22.49349976 C28.85377854 26.67467585 33.02127917 30.86182346 37.18756104 35.05023193 C41.44042719 39.32356063 45.69896419 43.59122973 49.95703125 47.859375 C58.31025559 56.23404581 66.65711048 64.61503443 75 73 C74.59152832 73.47630859 74.18305664 73.95261719 73.76220703 74.44335938 C73.22450684 75.07048828 72.68680664 75.69761719 72.1328125 76.34375 C71.60059082 76.96443359 71.06836914 77.58511719 70.52001953 78.22460938 C69.30204799 79.64720639 68.08789125 81.07306912 66.875 82.5 C65 84 65 84 63.24969482 83.93934631 C59.87857905 82.53175754 57.64622696 80.03731537 55.12988281 77.47045898 C54.26581566 76.60704895 54.26581566 76.60704895 53.3842926 75.72619629 C51.48337223 73.82318708 49.59329642 71.90977485 47.703125 69.99609375 C46.38670252 68.67407568 45.06961583 67.35271872 43.75189209 66.03199768 C40.28631907 62.55497311 36.82984961 59.06903342 33.37518311 55.58117676 C29.84801172 52.02331141 26.31232713 48.4739288 22.77734375 44.92382812 C15.84319189 37.9575066 8.91862531 30.98173961 2 24 C-3.26540421 28.40771582 -8.20285436 33.03892867 -13.0715332 37.87866211 C-13.84653168 38.64548309 -14.62153015 39.41230408 -15.42001343 40.20236206 C-17.96663993 42.72431497 -20.50924176 45.25026484 -23.05078125 47.77734375 C-23.92551779 48.64675661 -24.80025433 49.51616947 -25.70149803 50.41192818 C-29.85706841 54.5435807 -34.01029851 58.67756233 -38.16035014 62.81475824 C-42.44036948 67.08124771 -46.72661758 71.34124533 -51.02319336 75.59106445 C-55.6591081 80.17736406 -60.28234818 84.77609436 -64.89705467 89.38372993 C-66.64566217 91.12567388 -68.39848161 92.8634015 -70.15578651 94.59657097 C-82.29711053 106.58061608 -93.20951115 118.59901639 -100.3125 134.3125 C-100.79021851 135.34673096 -100.79021851 135.34673096 -101.27758789 136.40185547 C-111.97355737 160.49012082 -114.04552773 189.85849648 -106 215 C-105.79101074 215.67772461 -105.58202148 216.35544922 -105.36669922 217.05371094 C-100.72716904 231.74034355 -92.99894868 244.33455987 -83 256 C-82.484375 256.66 -81.96875 257.32 -81.4375 258 C-65.39753192 277.88956042 -38.30955426 289.96242251 -13.59765625 293.6875 C-1.57337332 294.73195454 11.26512146 295.14427367 23 292 C22.41992188 291.01902344 21.83984375 290.03804688 21.2421875 289.02734375 C3.17615159 258.01934391 -2.78876117 223.40665947 6.1875 188.375 C15.93440656 152.42275524 41.34653222 128.47511718 66.96484375 102.9375 C68.73724561 101.16696892 70.5094226 99.3962127 72.28138733 97.62524414 C76.89034108 93.02006372 81.50229217 88.41789703 86.1149292 83.81640625 C90.84344989 79.09821275 95.56905333 74.3770997 100.29492188 69.65625 C109.52713613 60.43468132 118.76242853 51.216202 128 42 C131.27907168 43.5587232 133.46450075 45.22076374 136.03417969 47.80712891 C137.20494049 48.9781163 137.20494049 48.9781163 138.39935303 50.17276001 C139.23178528 51.01551483 140.06421753 51.85826965 140.921875 52.7265625 C142.21185394 54.02078629 142.21185394 54.02078629 143.52789307 55.34115601 C146.2733231 58.09778029 149.0117169 60.86127799 151.75 63.625 C153.61021783 65.49524857 155.47088946 67.36504589 157.33203125 69.234375 C161.89329945 73.8176936 166.44881011 78.40667478 171 83 C174.07678681 81.62792243 176.18280642 80.06507306 178.55609131 77.68441772 C179.24313644 77.00012192 179.93018158 76.31582611 180.63804626 75.61079407 C181.38107498 74.8605748 182.1241037 74.11035553 182.88964844 73.33740234 C183.68027176 72.54707108 184.47089508 71.75673981 185.28547668 70.94245911 C187.89821109 68.32833109 190.50378954 65.70718956 193.109375 63.0859375 C194.91926192 61.27232057 196.72959083 59.45914463 198.54034424 57.64639282 C202.81862071 53.36125966 207.09241301 49.07170349 211.36406636 44.77997172 C216.22831018 39.89336221 221.09824386 35.0124401 225.96866179 30.13198543 C235.98544799 20.09430211 245.99507421 10.04950407 256 0 C259.23701171 1.42392566 261.40161296 3.14868106 263.89967346 5.63897705 C265.04522957 6.77390594 265.04522957 6.77390594 266.21392822 7.9317627 C267.04253357 8.76284546 267.87113892 9.59392822 268.72485352 10.45019531 C269.60509689 11.32532776 270.48534027 12.20046021 271.39225769 13.10211182 C273.80565787 15.50398774 276.21443139 17.91031819 278.62080503 20.31922245 C280.63857362 22.33806318 282.65931706 24.35391333 284.68001217 26.36982417 C289.45936704 31.13807817 294.23336779 35.91164696 299.00415039 40.68847656 C303.89633401 45.58666697 308.79754468 50.4756854 313.70341164 55.36016774 C317.93331876 59.57232532 322.15725136 63.79041191 326.37667602 68.01306987 C328.88818882 70.52637853 331.40177026 73.03751579 333.92120552 75.54288483 C358.64355591 100.13910303 383.89300138 130.08156232 385.09765625 166.9921875 C385.08025391 168.41917969 385.08025391 168.41917969 385.0625 169.875 C385.05347656 170.84179688 385.04445313 171.80859375 385.03515625 172.8046875 C385.01775391 173.89136719 385.01775391 173.89136719 385 175 C382.5211787 175.19389096 380.04219069 175.38040123 377.5625 175.5625 C376.85544922 175.61857422 376.14839844 175.67464844 375.41992188 175.73242188 C373.61572163 175.86190993 371.80768048 175.93521608 370 176 C368.14951238 174.14951238 368.44218248 171.45652178 368.10083008 168.9699707 C364.56991606 143.48202978 354.39732475 121.88778535 336.72021484 103.12866211 C335.81438188 102.16336405 335.81438188 102.16336405 334.89024925 101.17856503 C327.45175281 93.29759406 319.77741885 85.65245321 312.1015625 78.00390625 C310.52951345 76.43372836 308.95768953 74.86332504 307.38607788 73.29270935 C303.30154432 69.21194605 299.21401437 65.13419766 295.12579346 61.05712891 C290.93356515 56.8752346 286.74425981 52.69041426 282.5546875 48.50585938 C274.37260561 40.33441761 266.18734653 32.16616664 258 24 C255.15625973 25.29298895 253.10105702 26.65039898 250.8994751 28.86001587 C250.31339981 29.44334183 249.72732452 30.02666779 249.12348938 30.62767029 C248.49266953 31.26568069 247.86184967 31.9036911 247.21191406 32.56103516 C246.53833359 33.23432358 245.86475311 33.907612 245.17076111 34.6013031 C242.94760846 36.82584803 240.73162207 39.05739129 238.515625 41.2890625 C236.97478135 42.83363662 235.43349528 44.37776951 233.89178467 45.92147827 C229.83660963 49.98428698 225.78747676 54.05306622 221.73956299 58.12310791 C217.60734389 62.27579106 213.46945243 66.42281344 209.33203125 70.5703125 C201.21578501 78.70800398 193.10590917 86.85201269 185 95 C186.3256907 97.94242388 187.75992373 100.00260886 190.0534668 102.26464844 C190.98034554 103.18645905 190.98034554 103.18645905 191.9259491 104.12689209 C192.59362808 104.78111145 193.26130707 105.43533081 193.94921875 106.109375 C194.64006058 106.79501526 195.3309024 107.48065552 196.04267883 108.18707275 C198.25292138 110.37952077 200.46970992 112.5651891 202.6875 114.75 C204.88661303 116.9213312 207.08419366 119.09415664 209.27876282 121.27008057 C210.64278233 122.62202456 212.00946394 123.97129021 213.37931824 125.31732178 C239.78022232 151.44612945 255.36548136 183.05789968 256.1875 220.5625 C255.85940147 246.02294562 249.14758872 270.67143822 235 292 C262.95505525 299.49034973 292.6187559 291.21085498 316.94726562 277.24023438 C321.35597966 274.57654892 325.19136964 271.44687873 329 268 C329.80179687 267.33871094 330.60359375 266.67742187 331.4296875 265.99609375 C354.12977587 246.7964863 366.47829205 218.25181221 369 189 C370.916588 188.97287847 372.8332873 188.95354903 374.75 188.9375 C376.35101563 188.92009766 376.35101563 188.92009766 377.984375 188.90234375 C380.53368501 188.98489913 382.57933591 189.25382442 385 190 C386.81590981 217.69262462 371.97644002 246.81804616 354.3046875 267.12109375 C332.79895585 291.3649457 302.6615294 308.33123119 270 311 C256.6375252 311.74643251 243.67057658 311.32853996 230.546875 308.65625 C226.27534402 307.80203376 226.27534402 307.80203376 222 308 C219.73275778 309.81051577 219.73275778 309.81051577 217.625 312.3125 C201.10807582 329.58573829 176.84109851 342.87841591 153 346 C152.49411853 344.08487728 151.99551609 342.16783078 151.5 340.25 C151.2215625 339.18265625 150.943125 338.1153125 150.65625 337.015625 C150 334 150 334 150 330 C150.64324219 329.8047876 151.28648437 329.6095752 151.94921875 329.40844727 C182.02250399 320.16069755 208.44741541 305.03398911 224.30029297 276.67382812 C238.58693817 249.33128481 243.33609953 218.85879692 234.09472656 189.07568359 C227.66161702 169.49484873 217.25931318 153.88815422 202.65625 139.42919922 C201.86504257 138.63769974 201.07383514 137.84620026 200.25865173 137.03071594 C197.67715329 134.45059591 195.0886736 131.87760674 192.5 129.3046875 C190.69495581 127.50337873 188.89035658 125.70162398 187.08618164 123.89944458 C182.84376488 119.6638489 178.59693207 115.43273216 174.34785748 111.20381939 C169.50458381 106.38302169 164.66709394 101.55643749 159.83004379 96.72939658 C149.89304718 86.81321749 139.9489313 76.90420393 130 67 C126.94715889 68.36562848 124.83315506 69.91287945 122.46650696 72.2660675 C121.44282768 73.27695183 121.44282768 73.27695183 120.39846802 74.30825806 C119.66022797 75.04740448 118.92198792 75.7865509 118.16137695 76.5480957 C117.3754567 77.32729874 116.58953644 78.10650177 115.77980042 78.90931702 C113.17727285 81.49281609 110.58238448 84.08382507 107.98828125 86.67578125 C106.17724598 88.4803878 104.36606113 90.28484423 102.55473328 92.0891571 C98.75238612 95.87951638 94.95416812 99.67395686 91.15844727 103.47094727 C86.79719126 107.83339878 82.42497097 112.18463624 78.04729873 116.53060848 C73.81499698 120.73337089 69.59403071 124.9473944 65.37706566 129.16554832 C63.59310173 130.94716681 61.8059278 132.72557753 60.01537514 134.50057411 C48.47655641 145.94856477 37.85953244 157.06597391 30.75 171.875 C30.42555908 172.54442627 30.10111816 173.21385254 29.7668457 173.90356445 C22.0952078 190.13401053 17.55988267 208.93307354 19 227 C19.08121094 228.15757812 19.16242188 229.31515625 19.24609375 230.5078125 C21.91449465 258.18215587 33.80051543 281.12328493 53 301 C53.63808594 301.66386719 54.27617187 302.32773437 54.93359375 303.01171875 C69.5882058 317.09500089 88.81821182 324.50100507 108 330 C107.88416889 331.54238266 107.75683428 333.08390272 107.625 334.625 C107.55539063 335.48351562 107.48578125 336.34203125 107.4140625 337.2265625 C106.95323683 340.31322502 106.05718176 343.06911399 105 346 C80.60350709 340.55006072 56.59033411 330.35320305 39.6875 311.25 C37.25749364 308.69506696 37.25749364 308.69506696 34.01171875 307.6640625 C31.59512466 307.90262938 29.35646969 308.41268416 27 309 C-6.99799368 315.58178429 -42.11430994 308.78850533 -71.04296875 289.765625 C-85.19171295 280.09564485 -97.91522623 267.56415527 -107 253 C-107.34772461 252.44393066 -107.69544922 251.88786133 -108.05371094 251.31494141 C-125.98872009 222.21916117 -132.48222293 186.3897116 -124.9050293 152.82910156 C-118.7823393 128.7269215 -107.36000213 108.87320761 -90.37670898 90.8125 C-89.73008773 90.12426147 -89.08346647 89.43602295 -88.41725063 88.72692871 C-79.9886265 79.80893664 -71.28695697 71.16262885 -62.59765625 62.5 C-60.78041398 60.68462833 -58.96339646 58.86903167 -57.14659119 57.05322266 C-52.89903337 52.80905646 -48.64926347 48.56711835 -44.3983416 44.32632256 C-39.54720274 39.48648136 -34.69900843 34.64369486 -29.85102093 29.80069733 C-19.90388107 19.8639238 -9.95317374 9.93072943 0 0 Z " fill="#000000" transform="translate(127,82)"/>
<path d="M0 0 C4.01132964 1.61279957 6.72727895 4.43155422 9.72729492 7.43676758 C10.28888306 7.99163849 10.85047119 8.5465094 11.42907715 9.11819458 C13.28488643 10.95500678 15.13306102 12.79927164 16.98046875 14.64453125 C18.27584046 15.93347018 19.57135977 17.22226078 20.86701965 18.51091003 C23.58656056 21.21846957 26.30192855 23.93013839 29.01489258 26.64428711 C32.46303352 30.0926299 35.92464562 33.52708319 39.39013195 36.95798206 C42.07482117 39.62022484 44.75015908 42.29172166 47.4231205 44.96573448 C48.69352126 46.23380036 49.96710725 47.49868458 51.24413109 48.76008034 C68.97324915 66.29265031 81.74959048 86.1017537 82.24169922 111.89697266 C82.33190828 134.75170372 74.92204329 155.00860081 59.234375 171.8515625 C42.29169813 188.14259796 21.45048686 195.72558276 -1.83300781 195.46875 C-20.67432021 194.83785848 -37.71830771 188.43312251 -52 176 C-52.87978516 175.33291016 -52.87978516 175.33291016 -53.77734375 174.65234375 C-68.90771633 162.88427619 -77.55344174 142.62615584 -80 124 C-81.43216153 100.88884425 -76.41357628 79.65068111 -61.12342834 61.81045532 C-54.75972734 54.69359858 -48.07219799 47.94314438 -41.30859375 41.2109375 C-40.11054327 40.01475713 -38.9127171 38.81835205 -37.71510315 37.62173462 C-34.59551472 34.50592472 -31.472933 31.39313221 -28.34967041 28.28100586 C-25.14988331 25.09153439 -21.95300227 21.89915289 -18.75585938 18.70703125 C-12.50671139 12.46853809 -6.25439113 6.23323663 0 0 Z M-4.58227539 27.27587891 C-5.04603577 27.73131577 -5.50979614 28.18675262 -5.98760986 28.6559906 C-7.52984296 30.17400622 -9.06419944 31.69968466 -10.59765625 33.2265625 C-11.67175584 34.29168981 -12.74592996 35.35674197 -13.82017517 36.42172241 C-16.08106195 38.66607468 -18.33747475 40.91482637 -20.59155273 43.16601562 C-23.44840243 46.017541 -26.32093103 48.85265949 -29.19802189 51.68374062 C-31.42978472 53.88536894 -33.64982402 56.09855524 -35.86706352 58.31480026 C-36.91886611 59.36245583 -37.97469944 60.40608379 -39.03495979 61.44517899 C-48.46571255 70.70286197 -57.15875634 81.12053595 -61 94 C-61.37125 95.19625 -61.7425 96.3925 -62.125 97.625 C-66.64458575 115.05768788 -63.959958 132.54601594 -54.98046875 148.03515625 C-51.77223453 152.83801576 -48.10131995 156.9474224 -44 161 C-43.31292969 161.70898438 -42.62585938 162.41796875 -41.91796875 163.1484375 C-29.37961225 175.29133564 -13.39953611 179.51340589 3.64160156 179.34960938 C22.1847226 178.8312146 36.31246147 170.97942975 49 158 C49.59296875 157.43925781 50.1859375 156.87851562 50.796875 156.30078125 C61.20514081 145.64070255 65.93958708 129.11188639 66.4375 114.6875 C65.87018453 90.76158674 53.63623936 74.29284157 37.2265625 57.9609375 C36.21116518 56.94418917 35.19606458 55.92714443 34.1812439 54.90982056 C32.07506261 52.80071924 29.96537833 50.69520669 27.85302734 48.59228516 C25.14261518 45.89338392 22.44144052 43.18544114 19.74273109 40.47484398 C17.65833042 38.38323961 15.56921941 36.2963927 13.47861862 34.21098709 C12.47956864 33.2132717 11.48200339 32.21406731 10.48595047 31.21335983 C9.10304551 29.82540173 7.71307585 28.44449326 6.32275391 27.06396484 C5.53413971 26.27694183 4.74552551 25.48991882 3.93301392 24.67904663 C0.06780974 21.32166881 -1.46324999 24.19641257 -4.58227539 27.27587891 Z " fill="#000000" transform="translate(255,189)"/>
<path d="M0 0 C4.10879119 0.44722877 5.95211506 2.64117896 8.75 5.5625 C9.54921875 6.38878906 10.3484375 7.21507812 11.171875 8.06640625 C11.77515625 8.70449219 12.3784375 9.34257812 13 10 C11.32357676 14.25314786 8.2824091 17.12101814 5.125 20.3125 C4.59519531 20.87517578 4.06539062 21.43785156 3.51953125 22.01757812 C1.9453125 23.61328125 1.9453125 23.61328125 -1 26 C-5.10879119 25.55277123 -6.95211506 23.35882104 -9.75 20.4375 C-10.54921875 19.61121094 -11.3484375 18.78492188 -12.171875 17.93359375 C-12.77515625 17.29550781 -13.3784375 16.65742188 -14 16 C-12.32357676 11.74685214 -9.2824091 8.87898186 -6.125 5.6875 C-5.59519531 5.12482422 -5.06539062 4.56214844 -4.51953125 3.98242188 C-2.9453125 2.38671875 -2.9453125 2.38671875 0 0 Z " fill="#000000" transform="translate(230,296)"/>
<path d="M0 0 C5.66129431 4.69766975 10.85228904 9.74723372 16 15 C14.52278578 18.45201639 12.56205999 20.64961936 9.875 23.25 C9.15054687 23.95640625 8.42609375 24.6628125 7.6796875 25.390625 C7.12539063 25.92171875 6.57109375 26.4528125 6 27 C3.06769807 25.67879172 1.01335101 24.25361803 -1.234375 21.9609375 C-1.80800781 21.38085938 -2.38164062 20.80078125 -2.97265625 20.203125 C-3.55917969 19.59984375 -4.14570313 18.9965625 -4.75 18.375 C-5.35199219 17.76398438 -5.95398438 17.15296875 -6.57421875 16.5234375 C-8.05405305 15.02011376 -9.52764676 13.51065144 -11 12 C-7.48243109 7.82293017 -3.92004937 3.8047538 0 0 Z " fill="#000000" transform="translate(261,319)"/>
<path d="M0 0 C5.66129431 4.69766975 10.85228904 9.74723372 16 15 C14.52278578 18.45201639 12.56205999 20.64961936 9.875 23.25 C9.15054688 23.95640625 8.42609375 24.6628125 7.6796875 25.390625 C7.12539062 25.92171875 6.57109375 26.4528125 6 27 C3.06769807 25.67879172 1.01335101 24.25361803 -1.234375 21.9609375 C-1.80800781 21.38085938 -2.38164062 20.80078125 -2.97265625 20.203125 C-3.55917969 19.59984375 -4.14570313 18.9965625 -4.75 18.375 C-5.35199219 17.76398438 -5.95398438 17.15296875 -6.57421875 16.5234375 C-8.05405305 15.02011376 -9.52764676 13.51065144 -11 12 C-7.48243109 7.82293017 -3.92004937 3.8047538 0 0 Z " fill="#000000" transform="translate(242,255)"/>
<path d="M0 0 C3.45201639 1.47721422 5.64961936 3.43794001 8.25 6.125 C8.95640625 6.84945313 9.6628125 7.57390625 10.390625 8.3203125 C11.18726563 9.15175781 11.18726563 9.15175781 12 10 C10.34136495 14.32504836 7.128959 17.09418825 3.875 20.25 C3.31167969 20.80429687 2.74835938 21.35859375 2.16796875 21.9296875 C0.78313972 23.29104485 -0.60783204 24.64614859 -2 26 C-5.45201639 24.52278578 -7.64961936 22.56205999 -10.25 19.875 C-10.95640625 19.15054687 -11.6628125 18.42609375 -12.390625 17.6796875 C-12.92171875 17.12539063 -13.4528125 16.57109375 -14 16 C-12.34136495 11.67495164 -9.128959 8.90581175 -5.875 5.75 C-5.31167969 5.19570313 -4.74835938 4.64140625 -4.16796875 4.0703125 C-2.78313972 2.70895515 -1.39216796 1.35385141 0 0 Z " fill="#000000" transform="translate(283,278)"/>
<path d="M0 0 C5.28 0 10.56 0 16 0 C16 5.28 16 10.56 16 16 C10.39 16 4.78 16 -1 16 C-0.67 10.72 -0.34 5.44 0 0 Z " fill="#000000" transform="translate(248,414)"/>
<path d="M0 0 C5.28 0 10.56 0 16 0 C16 5.28 16 10.56 16 16 C10.72 16 5.44 16 0 16 C0 10.72 0 5.44 0 0 Z " fill="#000000" transform="translate(406,315)"/>
<path d="M0 0 C5.28 0 10.56 0 16 0 C16 5.28 16 10.56 16 16 C10.72 16 5.44 16 0 16 C0 10.72 0 5.44 0 0 Z " fill="#000000" transform="translate(90,315)"/>
<path d="M0 0 C5.28 0 10.56 0 16 0 C16 5.28 16 10.56 16 16 C10.72 16 5.44 16 0 16 C0 10.72 0 5.44 0 0 Z " fill="#000000" transform="translate(443,225)"/>
<path d="M0 0 C5.28 0 10.56 0 16 0 C16 5.28 16 10.56 16 16 C10.72 16 5.44 16 0 16 C0 10.72 0 5.44 0 0 Z " fill="#000000" transform="translate(53,225)"/>
<path d="M0 0 C5.28 0 10.56 0 16 0 C16 5.28 16 10.56 16 16 C10.72 16 5.44 16 0 16 C0 10.72 0 5.44 0 0 Z " fill="#000000" transform="translate(376,165)"/>
<path d="M0 0 C5.28 0 10.56 0 16 0 C16 5.28 16 10.56 16 16 C10.72 16 5.44 16 0 16 C0 10.72 0 5.44 0 0 Z " fill="#000000" transform="translate(120,165)"/>
</svg>
