<?xml version="1.0" encoding="UTF-8"?>
<svg version="1.1" xmlns="http://www.w3.org/2000/svg" width="512" height="512">
<path d="M0 0 C1.02609375 0.20399414 2.0521875 0.40798828 3.109375 0.61816406 C47.74480799 9.70126313 88.78881984 28.74866034 123 59 C123.82371094 59.71285156 124.64742188 60.42570312 125.49609375 61.16015625 C147.0247725 80.07287075 164.94721852 102.019443 179 127 C179.36013184 127.62600098 179.72026367 128.25200195 180.09130859 128.89697266 C195.03033062 154.98923545 204.50790855 184.32645378 209 214 C209.17732666 215.11882568 209.35465332 216.23765137 209.53735352 217.39038086 C211.21876346 229.11235984 211.35733932 240.73499018 211.3125 252.5625 C211.31034485 253.58323608 211.3081897 254.60397217 211.30596924 255.65563965 C211.25632085 270.29244304 210.96734064 284.61818326 208 299 C207.69400879 300.53479004 207.69400879 300.53479004 207.38183594 302.10058594 C198.08780818 347.78607607 177.88943196 390.23257734 146.1640625 424.6484375 C144.72038883 426.21719481 143.29827663 427.80606886 141.8984375 429.4140625 C101.49723217 475.69180679 38.62459659 504.11649619 -22 509 C-25.33769045 509.14609517 -28.67109964 509.18604419 -32.01171875 509.203125 C-32.93450119 509.21013931 -33.85728363 509.21715363 -34.80802917 509.22438049 C-37.76790304 509.24178136 -40.72757687 509.24823233 -43.6875 509.25 C-44.69854797 509.25067474 -45.70959595 509.25134949 -46.75128174 509.25204468 C-61.38469137 509.23650719 -75.60249396 508.82838248 -90 506 C-90.89557617 505.83902832 -91.79115234 505.67805664 -92.71386719 505.51220703 C-152.46501184 494.702172 -208.68912049 461.07890907 -246 413 C-246.763125 412.06542969 -247.52625 411.13085938 -248.3125 410.16796875 C-259.85679923 395.7560952 -269.23062049 379.72293954 -277 363 C-277.48412354 361.98752197 -277.48412354 361.98752197 -277.97802734 360.95458984 C-294.23713765 326.90787032 -301.45909447 290.44590808 -301.3125 252.875 C-301.31034485 251.88043793 -301.3081897 250.88587585 -301.30596924 249.86117554 C-301.25560229 235.37834894 -300.89634203 221.23510133 -298 207 C-297.80664062 206.00194336 -297.61328125 205.00388672 -297.4140625 203.97558594 C-289.42488171 163.54885168 -272.51183901 126.32905219 -247 94 C-246.54753906 93.42507812 -246.09507812 92.85015625 -245.62890625 92.2578125 C-238.50497573 83.25248786 -238.50497573 83.25248786 -236 82 C-232.34453935 81.59383771 -230.41082318 81.78565747 -227.125 83.5 C-224.81792272 86.21420857 -223.96267052 88.0295388 -224.20703125 91.62890625 C-225.67537328 96.01946591 -228.99684109 99.15634417 -232.0234375 102.5625 C-267.62111931 142.88304257 -284.48877416 199.41884926 -284.375 252.375 C-284.37478851 253.29009338 -284.37457703 254.20518677 -284.37435913 255.14801025 C-284.33857505 270.73935682 -283.23256342 285.70464892 -280 301 C-279.81276367 301.90250488 -279.62552734 302.80500977 -279.43261719 303.73486328 C-272.76913293 334.8944205 -259.50116319 365.07567072 -241 391 C-240.27167969 392.02351563 -239.54335937 393.04703125 -238.79296875 394.1015625 C-226.04134416 411.51729483 -211.22958802 427.92523089 -194 441 C-193.43313477 441.4326416 -192.86626953 441.8652832 -192.28222656 442.31103516 C-141.01735903 481.27069924 -77.06773425 499.20772806 -13.08154297 490.80249023 C35.19620663 483.9587663 81.92510103 463.75696567 117.23828125 429.62109375 C119.17696825 427.78112349 121.08621202 426.07488735 123.1484375 424.390625 C125.46348956 422.44978684 127.38144339 420.61280258 129.3125 418.3125 C131.16588043 416.12801456 133.02104494 413.97771469 134.98828125 411.89453125 C146.46756314 399.70172909 155.82848895 385.57458872 164 371 C164.3707666 370.34741211 164.7415332 369.69482422 165.12353516 369.02246094 C178.69132481 344.98544799 187.76688699 318.27493745 192 291 C192.17660156 289.86973389 192.35320312 288.73946777 192.53515625 287.57495117 C194.10806516 276.43889654 194.39950117 265.42401104 194.375 254.1875 C194.37445618 253.24490326 194.37391235 252.30230652 194.37335205 251.33114624 C194.33168951 235.56554138 193.2971019 220.46227097 190 205 C189.79101074 203.99066406 189.58202148 202.98132813 189.36669922 201.94140625 C178.10397228 148.96018887 147.37345056 97.99245965 104 65 C103.47035645 64.58862793 102.94071289 64.17725586 102.39501953 63.75341797 C79.5006955 46.01671466 53.64922743 32.58396684 26 24 C25.25476074 23.76587402 24.50952148 23.53174805 23.74169922 23.29052734 C-36.23025704 4.73691001 -101.9555766 12.13680905 -157.52441406 40.68798828 C-173.47151972 49.13963974 -189.17479359 59.49626557 -202.36962891 71.85546875 C-204.37325488 73.26202738 -205.75466658 73.53144196 -208.1875 73.6875 C-212 73 -212 73 -214.5 70.875 C-216.27801176 67.46714413 -216.70960213 65.78454468 -216 62 C-214.38521354 60.02058434 -212.92938856 58.62691909 -211 57 C-210.42636719 56.44957031 -209.85273438 55.89914063 -209.26171875 55.33203125 C-195.9927397 42.83600243 -179.99161436 33.53357567 -164 25 C-163.17580566 24.55914063 -162.35161133 24.11828125 -161.50244141 23.6640625 C-139.63856872 12.16822026 -115.28319911 4.37314883 -91 0 C-89.73446289 -0.24121582 -89.73446289 -0.24121582 -88.44335938 -0.48730469 C-60.47093051 -5.61452615 -27.88269568 -5.68393615 0 0 Z " fill="#000000" transform="translate(301,3)"/>
<path d="M0 0 C0.4434375 0.54914062 0.886875 1.09828125 1.34375 1.6640625 C3.00670441 3.29542873 3.00670441 3.29542873 5.78515625 2.96875 C6.86667969 2.8140625 7.94820313 2.659375 9.0625 2.5 C17.5355815 1.65174935 24.68249869 3.15851312 31.46875 8.48828125 C36.99597876 13.94500965 39.77423603 20.78573925 40.1875 28.5 C40 32 40 32 39.1875 35.5625 C38.61324229 39.1557132 38.61324229 39.1557132 41.25 41.875 C41.71277344 42.3596875 42.17554688 42.844375 42.65234375 43.34375 C46.25536399 47.77180965 47.57717283 54.2141015 47.36328125 59.8203125 C46.47698505 65.13808968 44.43778438 70.4654442 41.78125 75.1484375 C41.5234375 75.75945312 41.265625 76.37046875 41 77 C41.680625 78.423125 41.680625 78.423125 42.375 79.875 C45.05874665 85.49636124 44.94633052 91.95469123 44 98 C41.15728444 105.242778 37.17079157 110.55500024 31.67048645 115.96443176 C30.94231411 116.70040405 30.21414177 117.43637635 29.46390361 118.19465083 C27.04078273 120.63758477 24.60034212 123.06240763 22.15942383 125.48754883 C20.41035015 127.24340327 18.66234072 129.00031839 16.91531372 130.75820923 C12.67174971 135.02215948 8.41668576 139.2743036 4.15566991 143.52078984 C0.69081252 146.97432394 -2.76909561 150.43274554 -6.22558022 153.89465904 C-6.7188052 154.38865019 -7.21203018 154.88264134 -7.72020138 155.39160192 C-8.72237053 156.3953698 -9.7245285 157.39914885 -10.72667543 158.40293892 C-20.10938865 167.79988666 -29.50732477 177.18148918 -38.91059659 186.55785825 C-46.9667666 194.59169159 -55.00973769 202.63854346 -63.04321289 210.69506836 C-72.38760337 220.06625752 -81.74010429 229.42922921 -91.10556775 238.7793619 C-92.10550257 239.77770409 -93.10542702 240.77605668 -94.10534096 241.77441978 C-94.59723464 242.26554208 -95.08912831 242.75666439 -95.59592786 243.26266918 C-99.05039185 246.71282836 -102.49904531 250.1687298 -105.94545555 253.62693214 C-110.59001456 258.28703393 -115.24778827 262.93363423 -119.91453171 267.57153702 C-121.62238077 269.2727907 -123.32601876 270.97828419 -125.02503777 272.6883564 C-127.35047588 275.02752082 -129.69087633 277.35064397 -132.03556824 279.67048645 C-132.69950897 280.34558079 -133.3634497 281.02067513 -134.04750985 281.71622688 C-139.63982423 287.19467202 -145.8881058 291.34416798 -153.72265625 292.59375 C-159.1768245 292.44065054 -163.89079825 292.28334167 -169 290.25 C-171.04480497 289.37253583 -171.04480497 289.37253583 -173 289 C-176.20485402 290.60869555 -176.20485402 290.60869555 -179 293 C-187.7038168 296.22363585 -194.00938001 295.3166232 -202.484375 292.265625 C-205 291 -205 291 -206.91796875 288.828125 C-208.92229391 286.66748528 -208.92229391 286.66748528 -212.06640625 286.96875 C-213.22011719 287.1440625 -214.37382812 287.319375 -215.5625 287.5 C-223.92173113 288.36204571 -229.76730893 286.57642065 -236.875 282.25 C-241.69056861 277.15116265 -245.44013574 271.13529129 -246 264 C-245.80192912 261.78866072 -245.57031246 259.5801726 -245.3125 257.375 C-244.6991556 252.2358404 -244.6991556 252.2358404 -247.25 247.8125 C-248.61125 246.4203125 -248.61125 246.4203125 -250 245 C-253.25762477 238.14184259 -253.65838324 231.3583892 -252 224 C-251.11907461 221.76635654 -250.13533248 219.73484166 -248.9375 217.65625 C-247.84068401 215.84225256 -247.84068401 215.84225256 -247 213 C-247.7115625 211.2984375 -247.7115625 211.2984375 -248.4375 209.5625 C-251.15823289 202.71028384 -251.18475993 195.10630819 -248.4375 188.25 C-244.3802345 180.59797298 -237.71700647 174.5681058 -231.64430237 168.49713135 C-230.93751136 167.78666365 -230.23072036 167.07619596 -229.50251144 166.34419894 C-227.15449718 163.9852493 -224.80299018 161.62981454 -222.45141602 159.27441406 C-220.75876863 157.57549479 -219.06630936 155.87638809 -217.37402344 154.17710876 C-212.31508827 149.09903883 -207.25192256 144.02519913 -202.18787304 138.95223057 C-199.79824236 136.55820249 -197.40909476 134.16369241 -195.01988029 131.76924896 C-187.07208492 123.80446397 -179.12304353 115.84092562 -171.17038059 107.88100052 C-169.11284509 105.82155546 -167.05531501 103.76210498 -164.99780273 101.70263672 C-164.48648337 101.19083362 -163.97516401 100.67903052 -163.44835012 100.15171823 C-155.15399902 91.84905541 -146.8682111 83.53790119 -138.58593822 75.22319153 C-130.06835973 66.67252847 -121.54325636 58.12942682 -113.01071686 49.59369254 C-108.22571886 44.80653225 -103.44404692 40.01615107 -98.67077827 35.21729279 C-94.18399776 30.70725755 -89.68781924 26.20680967 -85.18425751 21.7135334 C-83.53445526 20.0642271 -81.88806507 18.41149948 -80.24538231 16.75510216 C-78.00030237 14.49233195 -75.74318573 12.24228029 -73.48268127 9.99493408 C-72.83762479 9.33890835 -72.1925683 8.68288262 -71.52796465 8.00697732 C-64.02802554 0.61181205 -56.69641621 -2.25 -46.20703125 -2.25 C-43.03687413 -2.00287448 -40.59901793 -1.33310213 -37.625 -0.25 C-35.2452213 0.62833691 -35.2452213 0.62833691 -33 1 C-29.84968468 -0.62772382 -29.84968468 -0.62772382 -27 -3 C-17.85422939 -6.44520291 -8.11690797 -5.43626631 0 0 Z M-25.1875 15.6875 C-29.66621117 17.77756521 -34.14350034 17.55953763 -39 17 C-41.0302589 16.06295743 -43.03696582 15.07074592 -45 14 C-49.12577721 13.48427785 -51.29990656 13.635368 -55 15.5625 C-65.4070314 24.01821301 -73.24861324 34.64545467 -76 48 C-76.99975134 59.5341852 -74.76949984 69.00616779 -71.1875 79.875 C-70.72916844 81.31969488 -70.27278044 82.76500783 -69.81835938 84.2109375 C-68.95359344 86.95622337 -68.06172561 89.69018779 -67.1484375 92.41967773 C-66 96 -66 96 -65.3359375 98.87915039 C-64.29836275 103.24746844 -64.29836275 103.24746844 -61.14233398 106.23925781 C-58.663372 107.27808106 -56.22472068 108.00567896 -53.625 108.6875 C-52.22954956 109.09657593 -52.22954956 109.09657593 -50.8059082 109.51391602 C-48.85393476 110.08229103 -46.89745073 110.63537723 -44.93701172 111.17382812 C-42.10031131 111.97178275 -39.30507796 112.85157437 -36.50390625 113.765625 C-20.61191186 118.84967032 -6.57505429 120.88296253 9 113 C15.59673895 108.70295755 24.41067074 102.17865852 28 95 C28.41739862 89.32835927 28.41739862 89.32835927 26.5 84.125 C24.38285657 79.71428452 24.29068823 75.81264219 25 71 C26.07056289 68.35123642 27.37243121 66.39348352 29 64 C30.63435151 61.43173334 31 60.3254401 31 57.25 C29.80859658 53.37793888 27.9220861 50.93629244 25.375 47.83203125 C22.2408707 43.65616011 22.75928382 38.97203416 23 34 C23.226875 32.783125 23.45375 31.56625 23.6875 30.3125 C24.07922334 26.16023262 23.39110236 24.3938227 21 21 C17.88479568 18.85397036 16.10651001 17.87133605 12.3125 18.3125 C11.219375 18.539375 10.12625 18.76625 9 19 C3.63214508 19.44932717 -0.59876948 19.73883064 -5.4375 17.1875 C-6.7059375 16.1046875 -6.7059375 16.1046875 -8 15 C-14.40997158 9.75547779 -18.70273203 10.68496471 -25.1875 15.6875 Z M-94.33509827 54.21484375 C-94.90135422 54.78332031 -95.46761017 55.35179687 -96.05102539 55.9375 C-96.69161392 56.57816406 -97.33220245 57.21882813 -97.99220276 57.87890625 C-98.68700241 58.57886719 -99.38180206 59.27882813 -100.09765625 60 C-101.16094398 61.06541016 -101.16094398 61.06541016 -102.24571228 62.15234375 C-104.52032021 64.43257148 -106.79143597 66.71624311 -109.0625 69 C-110.59938144 70.54189389 -112.13648782 72.08356362 -113.67382812 73.625 C-117.45183745 77.41406458 -121.22698153 81.20596604 -125 85 C-122.90967869 87.09032131 -121.96940924 87.48896119 -119.22460938 88.32861328 C-118.06330505 88.68876022 -118.06330505 88.68876022 -116.87854004 89.05618286 C-116.04205933 89.30834564 -115.20557861 89.56050842 -114.34375 89.8203125 C-113.48567749 90.08383514 -112.62760498 90.34735779 -111.74353027 90.61886597 C-109.92872695 91.17483771 -108.11298311 91.72774725 -106.29638672 92.27783203 C-103.509198 93.12221346 -100.72512766 93.97629649 -97.94140625 94.83203125 C-96.17986268 95.37036521 -94.41814947 95.9081445 -92.65625 96.4453125 C-91.40152893 96.82962936 -91.40152893 96.82962936 -90.12145996 97.22171021 C-86.132745 98.52189063 -86.132745 98.52189063 -82 99 C-83.17040432 93.42369863 -84.55300692 88.00183695 -86.20849609 82.55151367 C-89.19007869 72.70456583 -91.15827336 63.26035746 -92 53 C-93.17757559 52.88783136 -93.17757559 52.88783136 -94.33509827 54.21484375 Z M-144.3125 103.5625 C-145.66794922 104.83287109 -145.66794922 104.83287109 -147.05078125 106.12890625 C-149.33591529 108.85812721 -149.33591529 108.85812721 -148.77886963 112.14749146 C-147.92434627 116.37420467 -146.78699139 120.40412274 -145.48730469 124.51123047 C-145.23184372 125.33350632 -144.97638275 126.15578217 -144.71318054 127.00297546 C-143.87107287 129.70929844 -143.02146355 132.41320463 -142.171875 135.1171875 C-141.57942856 137.01686055 -140.98749793 138.91669453 -140.39605713 140.81668091 C-138.83754388 145.81912503 -137.27285223 150.81961418 -135.706604 155.81964111 C-133.2129113 163.7844062 -130.72918242 171.75228562 -128.24436188 179.71982193 C-127.38371068 182.47673337 -126.52079659 185.23292742 -125.65740967 187.98898315 C-123.11155765 196.12583261 -120.59032739 204.26933132 -118.16040039 212.44165039 C-117.95408115 213.12887365 -117.74776192 213.81609692 -117.53519058 214.52414513 C-116.06451622 219.51662612 -115.10215583 224.38180001 -114.6875 229.5625 C-114.61466797 230.29662109 -114.54183594 231.03074219 -114.46679688 231.78710938 C-114.29657543 233.52336812 -114.14578005 235.26151849 -114 237 C-108.14578586 232.13896126 -102.76520479 226.90706338 -97.39282227 221.5222168 C-96.44619501 220.57694714 -95.49935572 219.63188979 -94.55232239 218.68702698 C-92.00090096 216.14013346 -89.45261515 213.59012474 -86.90504956 211.03937507 C-84.2346651 208.36644737 -81.56182875 205.69597323 -78.88938904 203.02510071 C-74.40989358 198.54741933 -69.93249962 194.06764471 -65.45629883 189.58666992 C-60.27584464 184.40075461 -55.09177091 179.21847845 -49.90584141 174.03803891 C-45.4495462 169.58627281 -40.99519142 165.1325722 -36.54247135 160.67723018 C-33.88429993 158.01749743 -31.22545182 155.35845061 -28.56485176 152.70114708 C-25.60751237 149.74721707 -22.65425325 146.78924104 -19.70141602 143.83081055 C-18.81474243 142.94616119 -17.92806885 142.06151184 -17.01452637 141.15005493 C-16.2168837 140.34959244 -15.41924103 139.54912994 -14.59742737 138.72441101 C-13.89858209 138.0251887 -13.1997368 137.3259664 -12.47971439 136.60555553 C-10.88704966 135.24134877 -10.88704966 135.24134877 -11 134 C-11.86826416 133.96366455 -12.73652832 133.9273291 -13.63110352 133.88989258 C-28.59707277 132.71909493 -42.5772734 127.88535308 -56.7951088 123.36616516 C-60.40560401 122.22243506 -64.02174699 121.09685772 -67.63745117 119.96972656 C-74.0977608 117.95342425 -80.55398199 115.92443134 -87.00817013 113.88862801 C-96.37563247 110.9343544 -105.75044809 108.00378132 -115.12966919 105.08706665 C-117.75944644 104.26655317 -120.38657323 103.4379699 -123.01342773 102.6081543 C-124.57788901 102.1187437 -126.14241876 101.62955196 -127.70703125 101.140625 C-128.39868378 100.91975723 -129.0903363 100.69888947 -129.802948 100.47132874 C-136.54321261 98.38019704 -139.22093824 98.61830616 -144.3125 103.5625 Z M-163 123 C-167.56076463 127.53550215 -172.11767715 132.07484744 -176.671875 136.61694336 C-178.22306342 138.16308911 -179.77514624 139.70833806 -181.328125 141.25268555 C-183.55441781 143.4669098 -185.77752107 145.68429226 -188 147.90234375 C-188.69996094 148.5971434 -189.39992188 149.29194305 -190.12109375 150.00779724 C-190.76175781 150.64838577 -191.40242188 151.2889743 -192.0625 151.94897461 C-192.63097656 152.51523056 -193.19945312 153.08148651 -193.78515625 153.66490173 C-195.11216864 154.82242441 -195.11216864 154.82242441 -195 156 C-194.15824219 156.0515625 -193.31648438 156.103125 -192.44921875 156.15625 C-179.30653355 157.35724304 -167.10195811 161.30943197 -154.56518555 165.29736328 C-151.96104278 166.13209067 -151.96104278 166.13209067 -149 166 C-151.19163711 157.78270971 -153.53600655 149.61339171 -155.96166992 141.46264648 C-156.36676278 140.09724816 -156.76904717 138.73101385 -157.16870117 137.36401367 C-157.75342579 135.36448757 -158.34643578 133.36759159 -158.94140625 131.37109375 C-159.28888916 130.19474365 -159.63637207 129.01839355 -159.99438477 127.80639648 C-160.80768824 124.90755496 -160.80768824 124.90755496 -163 123 Z M-231.515625 191.6640625 C-234.3239522 195.36235255 -234.56434221 198.48526231 -234 203 C-233.505 203.9075 -233.01 204.815 -232.5 205.75 C-230.30597005 210.50373157 -230.18801012 214.85008219 -231 220 C-232.08329826 222.29861136 -233.3352069 224.2316148 -234.80859375 226.296875 C-236.40437514 228.57805758 -237 230.20854474 -237 233 C-235.31264641 237.26278801 -232.91846993 240.49783608 -230 244 C-227.69218829 248.61562343 -228.66652362 255.39325015 -229.6875 260.3125 C-230.12866395 264.10651001 -229.14602964 265.88479568 -227 269 C-223.6061773 271.39110236 -221.83976738 272.07922334 -217.6875 271.6875 C-216.470625 271.460625 -215.25375 271.23375 -214 271 C-205.72994345 270.17740112 -201.44059291 272.34787629 -195 277.3125 C-192.05617577 279.29109261 -192.05617577 279.29109261 -188.4375 279 C-184.74313009 277.92527421 -182.8461224 276.52988658 -180 274 C-174.64242481 272.2141416 -168.99700833 272.041436 -163.875 274.5 C-162.92625 274.995 -161.9775 275.49 -161 276 C-156.86225495 276.66737823 -154.56509665 276.97742417 -150.9921875 274.74609375 C-148.85307278 272.9383321 -146.9290972 271.03023433 -145 269 C-144.30519531 268.30132812 -143.61039062 267.60265625 -142.89453125 266.8828125 C-134.18679599 257.70129802 -129.50458281 246.99228397 -129.35083008 234.24633789 C-129.67333467 223.69985152 -133.51248896 213.38884905 -136.89648438 203.48876953 C-137.69598813 200.96113488 -138.31958884 198.60123305 -138.85351562 196.02294922 C-140.11253865 190.5022828 -141.21032274 186.18813092 -146.12475586 182.92553711 C-150.00068986 181.24033571 -154.02854724 180.24279184 -158.125 179.25 C-159.50420721 178.86771621 -160.88184535 178.47972402 -162.2578125 178.0859375 C-164.92863098 177.33227083 -167.60463669 176.61793137 -170.29614258 175.94189453 C-173.56063011 175.11173219 -176.78612661 174.1997427 -180.01953125 173.2578125 C-200.50657807 167.67530254 -217.83597319 176.64465097 -231.515625 191.6640625 Z " fill="#000000" transform="translate(296,48)"/>
<path d="M0 0 C0.99 0.99 0.99 0.99 2 2 C4.73532664 2.06764786 7.395852 2.03759664 10.125 1.9375 C18.39173314 1.79709388 25.06703157 2.31029261 31.546875 8.23828125 C37.02297195 14.87731276 39.73512962 21.95785028 39.30859375 30.52734375 C39 33 39 33 38.33203125 35.640625 C38.16767578 36.80851562 38.16767578 36.80851562 38 38 C39.18299993 39.47874991 40.37689653 40.95176805 41.65234375 42.3515625 C45.93387271 47.58867909 46.48374119 53.76137423 46.29296875 60.3203125 C45.74096155 65.36933834 44.0963361 69.46512947 41.125 73.625 C40.75375 74.40875 40.3825 75.1925 40 76 C40.94301862 78.02749004 41.95548562 80.02288349 43 82 C44.78129378 90.09176862 44.26080389 97.80709783 39.77416992 104.89282227 C34.82936416 112.09883775 28.36109756 118.02820928 22.17578125 124.15234375 C20.82332372 125.50173858 19.47146063 126.85172944 18.12016296 128.20228577 C15.30136953 131.01649955 12.47776731 133.82575973 9.65014648 136.63110352 C6.02507869 140.22775464 2.40887009 143.83315197 -1.20424175 147.44180965 C-3.98922958 150.22264509 -6.77703673 153.00063841 -9.56589699 155.7775898 C-10.90081677 157.1068146 -12.23527076 158.43650735 -13.56925011 159.76667595 C-15.42858003 161.61914052 -17.29124775 163.46817777 -19.1550293 165.31616211 C-19.70521225 165.8652272 -20.2553952 166.4142923 -20.82225037 166.97999573 C-26.74504607 172.83631036 -26.74504607 172.83631036 -30.875 173.375 C-34.87773372 172.89467195 -36.38593772 172.07536739 -39 169 C-39.85388157 162.43877405 -39.85388157 162.43877405 -37.98242188 159.28540039 C-36.51036444 157.58628702 -34.96082981 156.05990719 -33.3125 154.53125 C-32.73540283 153.96547241 -32.15830566 153.39969482 -31.5637207 152.81677246 C-29.72714694 151.02476609 -27.86470858 149.26266464 -26 147.5 C-24.74557772 146.28572959 -23.49295134 145.06960097 -22.2421875 143.8515625 C-19.18522186 140.87568348 -16.09459232 137.93666379 -13 135 C-14.22490646 134.77637283 -15.44981293 134.55274567 -16.71183777 134.32234192 C-28.70493164 132.0680169 -40.23517892 129.06102537 -51.86328125 125.38671875 C-53.59535706 124.84779838 -55.32772022 124.30980081 -57.06034851 123.7726593 C-61.5700824 122.37203272 -66.07603761 120.95963661 -70.58117676 119.54431152 C-75.10601227 118.12487821 -79.6341615 116.71610728 -84.16210938 115.30664062 C-85.94026871 114.7526527 -87.71841618 114.19862671 -89.49655151 113.64456177 C-92.9578742 112.56616418 -96.41944161 111.4885565 -99.88113403 110.41134644 C-101.536191 109.89593449 -103.19121091 109.38040354 -104.84619141 108.86474609 C-105.6393532 108.61765333 -106.43251499 108.37056057 -107.24971199 108.11598015 C-112.01649958 106.62798747 -116.77311011 105.11184959 -121.52490234 103.57666016 C-122.60676315 103.23246536 -123.68862396 102.88827057 -124.80326843 102.53364563 C-126.72039675 101.92342832 -128.63405995 101.30214975 -130.54304504 100.66691589 C-131.35666 100.4104982 -132.17027496 100.15408051 -133.00854492 99.88989258 C-133.69220627 99.66690994 -134.37586761 99.44392731 -135.08024597 99.21418762 C-138.4240398 98.84111939 -140.56742296 100.70659992 -143.24609375 102.5234375 C-145.64918756 104.55385901 -147.32462741 106.32963088 -149 109 C-148.96514751 111.57576372 -148.96514751 111.57576372 -148.04003906 114.25463867 C-147.73191284 115.31532562 -147.42378662 116.37601257 -147.10632324 117.46884155 C-146.74123657 118.63412384 -146.3761499 119.79940613 -146 121 C-145.44221863 122.8657518 -145.44221863 122.8657518 -144.87316895 124.76919556 C-143.59044572 129.04058784 -142.25674294 133.2954564 -140.921875 137.55078125 C-140.42694997 139.13753051 -139.93234835 140.72438069 -139.43804932 142.31132507 C-138.14164587 146.47077269 -136.84137721 150.62900117 -135.5401001 154.78692627 C-134.23962377 158.94392975 -132.9420875 163.10184994 -131.64453125 167.25976562 C-131.39154015 168.07006163 -131.13854904 168.88035763 -130.87789154 169.71520805 C-129.62278199 173.73609694 -128.36984856 177.75764287 -127.12121582 181.7805481 C-126.64012604 183.32979491 -126.15896688 184.87902017 -125.67773438 186.42822266 C-125.44646095 187.17291368 -125.21518753 187.91760471 -124.97690582 188.68486214 C-123.6074093 193.0834016 -122.20468492 197.46954732 -120.77539062 201.84912109 C-120.45105042 202.86169479 -120.12671021 203.87426849 -119.7925415 204.91752625 C-119.23088891 206.66923657 -118.65753176 208.41729124 -118.06634521 210.15925598 C-115.4075175 218.55256183 -114.81940423 227.27486369 -114 236 C-113.33902817 235.32348389 -112.67805634 234.64696777 -111.99705505 233.94995117 C-105.76332691 227.57427279 -99.51115908 221.21719636 -93.24050808 214.87782288 C-90.01731873 211.61811438 -86.800957 208.35222369 -83.59936523 205.07128906 C-80.50890826 201.90472931 -77.40162075 198.75562055 -74.28196907 195.61782837 C-73.09529456 194.41822773 -71.91479497 193.21248583 -70.74069023 192.00057983 C-69.09367072 190.30267862 -67.42595348 188.62803272 -65.75170898 186.95703125 C-65.03204956 186.19962143 -65.03204956 186.19962143 -64.29785156 185.4269104 C-61.57786121 182.76333007 -60.12178059 182.01362782 -56.28895569 181.5847168 C-53 182 -53 182 -50.625 183.6875 C-48.76311311 186.33710827 -48.07721101 187.75713747 -48 191 C-50.30153312 197.1804559 -54.77632728 201.21289132 -59.35180664 205.77172852 C-60.20424957 206.63264099 -61.0566925 207.49355347 -61.93496704 208.3805542 C-64.26642993 210.73136316 -66.60446429 213.07520142 -68.94655538 215.41539502 C-70.90706612 217.37578568 -72.86320843 219.34050792 -74.81949514 221.3051123 C-79.43993175 225.94476016 -84.06847101 230.57621522 -88.7019043 235.20288086 C-93.46567833 239.96002389 -98.21453171 244.73169921 -102.95638949 249.51067978 C-107.04096217 253.62605307 -111.13525055 257.73158644 -115.23719305 261.82964653 C-117.68118524 264.27158098 -120.12133917 266.71705172 -122.55195808 269.17230415 C-125.26803288 271.91499274 -128.00424192 274.63704781 -130.74243164 277.35766602 C-131.53398148 278.1624791 -132.32553131 278.96729218 -133.1410675 279.79649353 C-140.16426797 286.71587666 -147.56625855 291.51031838 -157.61328125 292.078125 C-162.27485552 291.92553664 -166.42395298 290.90622704 -170.5 288.5625 C-172.96829401 287.73265937 -172.96829401 287.73265937 -174.94140625 288.953125 C-176.3309756 289.84367773 -177.69751956 290.77147453 -179.03515625 291.73828125 C-184.03787594 294.95076328 -190.27299835 294.55300413 -196 294 C-200.89987045 292.66430085 -204.91294642 290.87436918 -208.875 287.6875 C-209.57625 287.130625 -210.2775 286.57375 -211 286 C-212.89390164 286.35569592 -212.89390164 286.35569592 -215 287 C-223.86910855 288.15240062 -230.65521973 286.06092889 -238 281 C-242.45326429 276.65871334 -245.79897528 271.3870688 -246.09130859 265.00732422 C-246.0408407 262.06336396 -245.91464679 259.12891602 -245.74609375 256.18945312 C-245.62731969 252.26641569 -245.65163735 250.52111039 -247.8984375 247.16015625 C-248.59195313 246.44730469 -249.28546875 245.73445312 -250 245 C-254.010326 238.12515542 -254.23204188 230.14930324 -252.390625 222.453125 C-251.31917287 219.45743231 -250.26162975 217.26162975 -248 215 C-248.33165412 212.09802641 -249.15457412 209.52718504 -250.0625 206.75 C-252.23872161 198.04511358 -250.83795041 191.07611564 -247 183 C-244.84534756 179.9504988 -242.34965811 177.40035012 -239.68357849 174.79469299 C-238.57528398 173.67001858 -238.57528398 173.67001858 -237.44459969 172.52262348 C-234.98386545 170.03414292 -232.49908285 167.57123478 -230.01342773 165.10766602 C-228.23615165 163.32089715 -226.46036653 161.5326442 -224.68595886 159.74302673 C-220.37424469 155.40276858 -216.04649089 151.07910715 -211.71033119 146.76328755 C-208.18456286 143.25337045 -204.66573808 139.73662881 -201.15168953 136.21497917 C-200.6502917 135.71250871 -200.14889386 135.21003824 -199.63230215 134.6923414 C-198.61354174 133.67134276 -197.59479698 132.6503285 -196.57606769 131.6292988 C-187.03737453 122.07067625 -177.47739971 112.53357111 -167.90993006 103.00376373 C-159.71281888 94.83792409 -151.53423385 86.65390601 -143.36889648 78.45629883 C-133.87163772 68.92152369 -124.36305488 59.39827892 -114.83628994 49.89297813 C-113.81918565 48.87810353 -112.80209589 47.86321437 -111.78502083 46.84831047 C-111.28468054 46.34905011 -110.78434026 45.84978976 -110.26883815 45.3354003 C-106.75489074 41.82748019 -103.24909721 38.31153777 -99.74642754 34.79236031 C-95.02610096 30.05027596 -90.2874551 25.32726608 -85.53607368 20.61626625 C-83.79788158 18.88730885 -82.06557965 17.15240593 -80.3397522 15.41110611 C-77.97746865 13.02960907 -75.59453003 10.67084758 -73.20530701 8.31642151 C-72.53192415 7.6274236 -71.8585413 6.93842569 -71.1647529 6.22854906 C-65.08277401 0.31648093 -57.91004041 -2.97519615 -49.375 -3.4375 C-45.30133749 -3.26197415 -41.79785797 -2.09748277 -38.04296875 -0.55859375 C-35.60437378 0.10817314 -34.35757144 -0.14932989 -32 -1 C-31.175 -1.495 -30.35 -1.99 -29.5 -2.5 C-20.28066251 -8.03160249 -8.50122528 -5.69047534 0 0 Z M-23.875 13.4375 C-28.14606741 16.31225691 -31.82531753 17.48914909 -37 17 C-39.56717652 16.10168784 -41.93470241 15.06641106 -44.34765625 13.8125 C-48.09276167 12.66525121 -51.31420875 12.82743063 -55 14 C-57.54699258 15.57981175 -59.51315194 17.51299612 -61.5625 19.6875 C-62.12042236 20.26330811 -62.67834473 20.83911621 -63.25317383 21.43237305 C-72.29030666 31.18805467 -77.64499883 43.56096668 -77.30078125 56.94921875 C-76.77598763 62.2721255 -75.33779554 67.23951137 -73.78369141 72.34472656 C-72.80782875 75.65110733 -71.91545684 78.97788353 -71.01171875 82.3046875 C-70.45188986 84.28949199 -69.8857792 86.27234364 -69.31564331 88.25421143 C-68.94038166 89.57826652 -68.57593091 90.90543626 -68.22268677 92.23553467 C-67.71633903 94.12924734 -67.16350102 96.01033777 -66.609375 97.890625 C-66.29967773 98.99438477 -65.98998047 100.09814453 -65.67089844 101.23535156 C-63.24831579 105.24372765 -60.36042714 105.77909271 -56 107 C-54.75822998 107.41008301 -53.51645996 107.82016602 -52.23706055 108.24267578 C-50.95459281 108.64667736 -49.67110718 109.04745932 -48.38671875 109.4453125 C-47.69165726 109.66065643 -46.99659576 109.87600037 -46.2804718 110.09786987 C-44.82132433 110.54806405 -43.36169753 110.99670739 -41.90161133 111.44384766 C-40.42942972 111.89675169 -38.95870314 112.35441356 -37.48950195 112.81689453 C-21.2787383 117.91890649 -8.02895852 120.12637145 7.71337891 112.16430664 C16.07406798 107.5897857 24.34694331 100.9665937 28 92 C27.85157913 88.43789918 27.16976705 86.30558069 25.4375 83.1875 C23.54822694 78.99824236 23.38915521 75.52839601 24 71 C25.27459078 67.84387044 26.78906706 65.31249324 28.6875 62.5 C30.40397116 59.23053112 30.64574685 57.65923217 30 54 C28.61097378 51.84212441 27.0751933 49.87547656 25.46875 47.875 C21.95069198 43.3838621 21.72042172 39.5915655 22 34 C22.22783557 32.45813605 22.45704694 30.9164749 22.6875 29.375 C23.06332492 26.22343962 23.04124896 25.1020369 21.8125 22.0625 C19.8528602 19.83256505 18.83109709 18.86505744 16 18 C12.17732491 17.77946105 8.83973519 18.02798274 5.0625 18.6875 C0.49872409 19.29659195 -3.00084423 18.21247658 -7 16 C-8.04610657 15.13381348 -9.06846563 14.23798027 -10.0625 13.3125 C-12.83682158 10.75960198 -12.83682158 10.75960198 -16.375 10.375 C-19.85186163 10.9744589 -21.07679501 11.53316605 -23.875 13.4375 Z M-95.2971344 54.17687988 C-95.84562546 54.72759155 -96.39411652 55.27830322 -96.95922852 55.84570312 C-97.5797963 56.46634644 -98.20036407 57.08698975 -98.83973694 57.72644043 C-99.51266281 58.40452759 -100.18558868 59.08261475 -100.87890625 59.78125 C-101.5655687 60.46932739 -102.25223114 61.15740479 -102.95970154 61.86633301 C-105.16298015 64.07523123 -107.36276573 66.28757265 -109.5625 68.5 C-111.05120434 69.99371681 -112.54013363 71.48720945 -114.02929688 72.98046875 C-117.68881701 76.65104389 -121.3454714 80.32445549 -125 84 C-124.0599825 86.45358946 -124.0599825 86.45358946 -120.33813477 87.32861328 C-118.70839312 87.83398401 -117.07592079 88.33059866 -115.44140625 88.8203125 C-114.58191879 89.08383514 -113.72243134 89.34735779 -112.8368988 89.61886597 C-111.01631063 90.17547431 -109.19458066 90.72835936 -107.37182617 91.27783203 C-104.57541833 92.12110441 -101.78261459 92.97552729 -98.99023438 93.83203125 C-97.22415883 94.37044975 -95.45788904 94.9082316 -93.69140625 95.4453125 C-92.4319796 95.82962936 -92.4319796 95.82962936 -91.14710999 96.22171021 C-87.14522139 97.52138202 -87.14522139 97.52138202 -83 98 C-83.6387256 91.70024068 -85.49035198 86.00663263 -87.4375 80 C-90.28254963 70.99510547 -92.27069275 62.42145896 -93 53 C-94.16847581 52.88800948 -94.16847581 52.88800948 -95.2971344 54.17687988 Z M-164 123 C-168.41834948 127.39308638 -172.83284622 131.79001624 -177.24462891 136.18969727 C-178.74731473 137.68734052 -180.25089493 139.18408691 -181.75537109 140.67993164 C-183.91216551 142.82465709 -186.06576951 144.9725406 -188.21875 147.12109375 C-188.89683716 147.79401962 -189.57492432 148.4669455 -190.27355957 149.16026306 C-190.89420288 149.78083084 -191.51484619 150.40139862 -192.15429688 151.04077148 C-192.70500854 151.58926254 -193.25572021 152.1377536 -193.82312012 152.7028656 C-195.11199052 153.83152419 -195.11199052 153.83152419 -195 155 C-193.88367188 155.13535156 -192.76734375 155.27070313 -191.6171875 155.41015625 C-181.07485363 156.81815693 -171.28059906 159.21860591 -161.21240234 162.66235352 C-160.32891113 162.96326904 -159.44541992 163.26418457 -158.53515625 163.57421875 C-157.755354 163.84838623 -156.97555176 164.12255371 -156.17211914 164.4050293 C-153.73237305 165.17612085 -153.73237305 165.17612085 -150 165 C-152.01755469 156.49170068 -154.3755184 148.11079017 -156.96166992 139.75952148 C-157.5728783 137.77886856 -158.17219332 135.79483379 -158.77148438 133.81054688 C-159.15755859 132.55951172 -159.54363281 131.30847656 -159.94140625 130.01953125 C-160.28888916 128.88620361 -160.63637207 127.75287598 -160.99438477 126.58520508 C-161.72159652 123.85942871 -161.72159652 123.85942871 -164 123 Z M-228.5625 186.875 C-229.08787354 187.35646484 -229.61324707 187.83792969 -230.15454102 188.33398438 C-234.29309824 192.46226202 -234.94948106 195.35871856 -235 201 C-234.27497236 203.65248672 -234.27497236 203.65248672 -233 205.9375 C-230.79760093 210.94853342 -230.30464594 214.74249753 -232 220 C-233.20487859 222.11050628 -234.53807414 224.08886116 -235.8984375 226.1015625 C-237.76037451 229.31043267 -237.70687939 231.40134129 -237 235 C-235.63762752 237.12430725 -234.16958419 239.01156202 -232.5078125 240.91015625 C-227.99281194 247.16799382 -229.17685768 253.17362543 -230.00390625 260.44140625 C-229.99956041 264.40046286 -229.49288126 265.97019047 -227 269 C-223.4061895 271.85196889 -219.52686315 270.86238759 -215.25 270.375 C-208.85362284 269.80894256 -204.1701759 269.92249014 -199 274 C-197.7934375 275.1446875 -197.7934375 275.1446875 -196.5625 276.3125 C-193.17314137 278.54451666 -191.06701498 278.24988943 -187.1484375 277.625 C-184.1429796 276.75068497 -182.2557591 275.12306739 -180 273 C-174.08818227 271.02939409 -168.91074432 271.31547656 -163.3125 274.0625 C-162.62800781 274.44535156 -161.94351563 274.82820313 -161.23828125 275.22265625 C-158.09674395 276.31369626 -156.18019881 275.90746033 -153 275 C-140.64808212 266.61902326 -133.05470366 253.55570645 -130.19921875 239.1640625 C-129.51627906 228.31737331 -132.66139558 218.52142045 -135.875 208.3125 C-136.32776108 206.84078308 -136.77958975 205.36877898 -137.23046875 203.89648438 C-137.67104962 202.46849508 -138.11242863 201.04075175 -138.5546875 199.61328125 C-138.75480438 198.96724442 -138.95492126 198.32120758 -139.16110229 197.65559387 C-139.75672409 195.7648445 -140.37836865 193.88235836 -141 192 C-141.17022675 191.29567337 -141.34045349 190.59134674 -141.51583862 189.86567688 C-142.37487082 186.79687282 -143.00620102 184.65424765 -145.7381897 182.85569763 C-148.01709529 181.9350912 -150.27283122 181.25917122 -152.6484375 180.62890625 C-153.49798004 180.37624496 -154.34752258 180.12358368 -155.22280884 179.86326599 C-157.93233261 179.06549786 -160.652313 178.31395969 -163.375 177.5625 C-165.19877461 177.03223883 -167.02170514 176.49906528 -168.84375 175.96289062 C-191.86175194 169.25175861 -210.1747687 169.42889959 -228.5625 186.875 Z " fill="#000000" transform="translate(423,175)"/>
<path d="M0 0 C4.71282026 1.42273819 4.71282026 1.42273819 6.3125 4 C7.37882003 7.50362295 7.61237996 9.28362009 6.1875 12.6875 C4.03806477 15.33847012 2.4667324 16.67962365 -0.6875 18 C-4.59782112 18 -6.16847805 17.45248068 -9.125 14.875 C-10.6875 12 -10.6875 12 -10.8125 8.5 C-8.98120795 2.80264695 -6.09672786 0 0 0 Z " fill="#000000" transform="translate(424.6875,221)"/>
<path d="M0 0 C2.5625 2.0625 2.5625 2.0625 4 5 C4.16850673 9.71818837 3.51416561 11.43800503 0.3125 14.9375 C-3.30546132 17.1901929 -4.84143548 17.81363219 -9 17 C-11.94427735 14.93104835 -12.84332955 13.49090073 -13.9375 10.0625 C-14.0128328 6.37119268 -13.24574926 4.8873919 -11 2 C-7.3290609 -0.44729273 -4.26523078 -0.82221316 0 0 Z " fill="#000000" transform="translate(394,251)"/>
<path d="M0 0 C1.9375 1.0625 1.9375 1.0625 3 3 C3.63656766 7.93339933 3.81294848 9.87621828 0.875 13.9375 C-2.32871776 16.23581926 -4.06622284 17 -8 17 C-12.56521739 14.86956522 -12.56521739 14.86956522 -14 12 C-14.40417552 9.03604618 -14.56382171 6.91095074 -12.953125 4.30859375 C-8.62279566 -0.9769553 -6.62276965 -1.3942673 0 0 Z " fill="#000000" transform="translate(268,125)"/>
<path d="M0 0 C2.375 1.125 2.375 1.125 4 3 C5.15512172 6.54237329 5.32783272 8.25806279 3.8125 11.6875 C1.09191709 15.15858854 -0.53009086 16.81626136 -5 17.375 C-8.42150709 16.94731161 -9.73498601 16.60057161 -12 14 C-13.08711382 10.08639025 -13.4142982 7.93217096 -11.75 4.1875 C-8.23504031 -0.20619962 -5.4055614 -0.47417205 0 0 Z " fill="#000000" transform="translate(271,400)"/>
<path d="M0 0 C2.72009268 2.35741365 2.97887341 3.85475469 3.5 7.4375 C3 11 3 11 0.875 13.875 C-2.32915727 16.24329016 -4.02790584 17 -8 17 C-12.56521739 14.86956522 -12.56521739 14.86956522 -14 12 C-14.375 8.6875 -14.375 8.6875 -14 5 C-9.77563285 -0.25191591 -6.56147794 -1.77706694 0 0 Z " fill="#000000" transform="translate(146,274)"/>
<path d="M0 0 C2.4375 1.5 2.4375 1.5 4 4 C4.70476018 8.93332128 4.77041398 10.84437903 2 15 C-2.15562097 17.77041398 -4.06667872 17.70476018 -9 17 C-11.5 15.4375 -11.5 15.4375 -13 13 C-13.61984499 8.73856568 -13.49311964 6.75611678 -11.125 3.125 C-7.55474791 -0.44525209 -4.98769854 -0.42997401 0 0 Z " fill="#000000" transform="translate(105,255)"/>
<path d="M0 0 C4.64193144 1.40133779 4.64193144 1.40133779 6.3125 4 C7.56354013 7.30632033 7.39828444 8.74769284 6.25 12.125 C3.90497956 15.60470775 2.30788649 16.74654541 -1.6875 18 C-5.106609 17.39662782 -7.01358838 16.58695528 -9.625 14.3125 C-11.24944843 10.77693577 -10.78846787 8.69148051 -9.6875 5 C-6.46433239 1.31637987 -4.95113248 0 0 0 Z " fill="#000000" transform="translate(228.6875,381)"/>
<path d="M0 0 C2.4375 1.5 2.4375 1.5 4 4 C4.79006434 8.97740536 4.79006434 8.97740536 4 12 C1.12277073 15.28826203 -0.77164017 16.74931432 -5.0625 17.625 C-9.0924485 16.76756415 -10.56929333 15.28860314 -13 12 C-13.7446324 8.02862719 -13.37266878 6.55900317 -11.125 3.1875 C-7.58008954 -0.46167253 -5.01993393 -0.43275293 0 0 Z " fill="#000000" transform="translate(393,204)"/>
<path d="M0 0 C2.4375 1.5 2.4375 1.5 4 4 C4.70476018 8.93332128 4.77041398 10.84437903 2 15 C-2.17528818 17.78352545 -4.04621883 17.78631447 -9 17 C-11.99993115 14.45005852 -12.85480459 12.87117244 -13.5 9 C-12.88466097 5.30796584 -11.58383614 3.65983132 -9 1 C-5.90826248 -0.54586876 -3.40570448 -0.29359521 0 0 Z " fill="#000000" transform="translate(301,95)"/>
<path d="M0 0 C2.50031654 3.75047482 2.53603554 5.55856266 2 10 C-0.55801559 13.5657187 -2.32141224 14.78188251 -6.5 16.125 C-10 16 -10 16 -12.9375 14 C-15.51734028 10.24750505 -15.79785988 8.46801531 -15 4 C-10.19656606 -1.97183679 -7.10318124 -2.582975 0 0 Z " fill="#000000" transform="translate(269,79)"/>
</svg>
