<?xml version="1.0" encoding="utf-8"?>

<!DOCTYPE svg PUBLIC "-//W3C//DTD SVG 1.1//EN" "http://www.w3.org/Graphics/SVG/1.1/DTD/svg11.dtd">
<!-- Uploaded to: SVG Repo, www.svgrepo.com, Generator: SVG Repo Mixer Tools -->
<svg height="800px" width="800px" version="1.1" id="_x32_" xmlns="http://www.w3.org/2000/svg" xmlns:xlink="http://www.w3.org/1999/xlink" 
	 viewBox="0 0 512 512"  xml:space="preserve">
<g>
	<path class="st0" d="M467.683,215.354c0,0-9.061-13.494-21.09-27.673C359.507,84.936,234.247,15.521,92.922,1.583
		C75.595-0.132,61.159,0.025,61.159,0.025C55.713-0.248,50.384,1.73,46.426,5.494c-3.942,3.763-6.185,8.991-6.185,14.445v29.495
		v119.877v320.654c0,8.164,4.519,15.66,11.733,19.477c7.214,3.817,15.955,3.334,22.702-1.255l265.121-180.403l101.981-69.393
		l21.253-14.468c4.535-3.077,7.588-7.876,8.469-13.283C472.38,225.233,470.994,219.71,467.683,215.354z M100.051,231.778
		c0-19.936,16.166-36.095,36.094-36.095c19.944,0,36.103,16.158,36.103,36.095s-16.158,36.102-36.103,36.102
		C116.217,267.88,100.051,251.714,100.051,231.778z M174.103,377.099c-12.271,0-22.22-9.949-22.22-22.212
		c0-12.27,9.949-22.219,22.22-22.219c12.262,0,22.211,9.948,22.211,22.219C196.313,367.15,186.365,377.099,174.103,377.099z
		 M222.903,307.348l-6.451-23.185l60.636-16.875l6.459,23.185L222.903,307.348z M348.834,272.375
		c-67.515-80.33-163.592-131.166-267.863-141.738V41.41c133.487,11.11,256.784,76.428,341.44,180.894L348.834,272.375z"/>
</g>
</svg>