<?xml version="1.0" encoding="iso-8859-1"?>
<!-- Uploaded to: SVG Repo, www.svgrepo.com, Generator: SVG Repo Mixer Tools -->
<svg fill="#000000" height="800px" width="800px" version="1.1" id="Layer_1" xmlns="http://www.w3.org/2000/svg" xmlns:xlink="http://www.w3.org/1999/xlink" 
	 viewBox="0 0 512 512" xml:space="preserve">
<g>
	<g>
		<path d="M301.524,262.737h-91.047l-28.582,28.582v91.047l28.582,28.582h91.047l28.582-28.582v-91.047L301.524,262.737z
			 M296.421,357.053h-80.842v-40.421h80.842V357.053z"/>
	</g>
</g>
<g>
	<g>
		<path d="M377.263,161.684h-53.895c-22.325,0-40.421-31.572-40.421-53.895V0h-53.895v107.789c0,22.323-18.096,53.895-40.421,53.895
			h-53.895c-22.232,0-40.421,18.19-40.421,40.421v269.474c0,22.232,18.189,40.421,40.421,40.421h242.526
			c22.232,0,40.421-18.189,40.421-40.421V202.105C417.684,179.874,399.495,161.684,377.263,161.684z M370.526,399.108l-52.26,52.26
			H193.734l-52.26-52.26V274.576l52.26-52.26h124.532l52.26,52.26V399.108z"/>
	</g>
</g>
</svg>