<?xml version="1.0" encoding="iso-8859-1"?><!--Uploaded to: SVG Repo, www.svgrepo.com, Generator: SVG Repo Mixer Tools--><!DOCTYPE svg PUBLIC "-//W3C//DTD SVG 1.1//EN" "http://www.w3.org/Graphics/SVG/1.1/DTD/svg11.dtd"><svg xmlns="http://www.w3.org/2000/svg" xmlns:xlink="http://www.w3.org/1999/xlink" xml:space="preserve" id="Capa_1" width="800px" height="800px" fill="#000000" version="1.1" viewBox="0 0 396.152 396.152"><g><path d="M358.689,37.464C334.514,13.289,302.338,0,268.023,0c-0.217,0-0.435,0-0.652,0.002
		c-34.523,0.169-67.041,13.767-91.563,38.289L46.773,167.326c-12.272,12.273-19.032,28.591-19.032,45.947
		c0,17.356,6.759,33.674,19.032,45.947l18.984,18.984l-54.965,54.965c-14.389,14.389-14.389,37.802,0,52.191
		c7.195,7.194,16.645,10.791,26.096,10.791s18.901-3.597,26.096-10.791l54.965-54.965l18.984,18.984
		c12.273,12.272,28.591,19.032,45.947,19.032c17.357,0,33.674-6.759,45.947-19.032l129.035-129.035
		c24.522-24.522,38.12-57.04,38.289-91.563C396.32,94.221,383.016,61.791,358.689,37.464z M48.84,371.218
		c-5.681,5.682-14.429,6.454-20.958,2.34c-1.045-0.659-2.039-1.43-2.948-2.34c-6.591-6.591-6.591-17.315,0-23.906l54.965-54.965
		l15.381,15.381l8.526,8.526L48.84,371.218z M343.719,206.202L214.684,335.237c-8.496,8.496-19.791,13.174-31.805,13.174
		c-7.037,0-13.822-1.617-19.948-4.654c-4.333-2.148-8.338-5.001-11.857-8.521l-90.159-90.159
		c-8.496-8.495-13.174-19.791-13.174-31.805c0-12.014,4.679-23.31,13.174-31.805L189.95,52.433
		c14.663-14.663,32.696-24.707,52.311-29.401c8.171-1.955,16.615-2.989,25.207-3.031c0.186-0.001,0.366-0.001,0.551-0.001
		c28.973,0,56.133,11.212,76.526,31.606c20.524,20.523,31.748,47.897,31.605,77.078C376.007,157.901,364.49,185.431,343.719,206.202
		z"/><path d="M326.923,83.346c3.905-3.905,3.906-10.237,0-14.142c-15.832-15.832-37-24.404-59.595-24.275
		c-22.54,0.177-43.77,9.092-59.781,25.103c-3.905,3.905-3.905,10.237,0,14.142c1.953,1.953,4.512,2.929,7.071,2.929
		c2.559,0,5.119-0.977,7.071-2.929c12.274-12.274,28.538-19.109,45.796-19.245c17.198-0.123,33.284,6.406,45.295,18.418
		C316.688,87.252,323.019,87.251,326.923,83.346z"/></g></svg>