<?xml version="1.0" encoding="iso-8859-1"?>
<!-- Uploaded to: SVG Repo, www.svgrepo.com, Generator: SVG Repo Mixer Tools -->
<!DOCTYPE svg PUBLIC "-//W3C//DTD SVG 1.1//EN" "http://www.w3.org/Graphics/SVG/1.1/DTD/svg11.dtd">
<svg fill="#000000" height="800px" width="800px" version="1.1" id="Capa_1" xmlns="http://www.w3.org/2000/svg" xmlns:xlink="http://www.w3.org/1999/xlink" 
	 viewBox="0 0 480.853 480.853" xml:space="preserve">
<path d="M479.539,444.213l-38.989-281.951c-0.008-0.058-0.017-0.116-0.025-0.175c-6.979-44.642-31.983-85.939-70.408-116.283
	C332.713,16.267,286.655,0,240.426,0s-92.287,16.267-129.689,45.804c-38.425,30.344-63.43,71.642-70.408,116.283
	c-0.009,0.059-0.018,0.117-0.025,0.175L1.314,444.213c-1.544,9.097,0.967,18.353,6.902,25.427
	c5.979,7.126,14.744,11.213,24.047,11.213h416.326c9.303,0,18.067-4.087,24.047-11.213
	C478.572,462.565,481.083,453.31,479.539,444.213z M457.316,456.783c-2.171,2.586-5.351,4.069-8.727,4.069H32.263
	c-3.376,0-6.556-1.483-8.727-4.069c-2.169-2.585-3.077-5.975-2.491-9.298c0.021-0.122,0.04-0.244,0.057-0.366l39-282.029
	C72.872,83.726,152.061,20,240.426,20S407.981,83.726,420.75,165.09l39,282.029c0.017,0.122,0.036,0.244,0.057,0.366
	C460.393,450.809,459.485,454.198,457.316,456.783z M181.673,293.29c0,4.362-3.536,7.897-7.897,7.897s-7.897-3.536-7.897-7.897
	s3.536-7.897,7.897-7.897S181.673,288.929,181.673,293.29z M281.649,393.266c0,4.362-3.536,7.897-7.897,7.897
	c-4.362,0-7.897-3.536-7.897-7.897s3.536-7.897,7.897-7.897C278.113,385.369,281.649,388.905,281.649,393.266z M131.685,376.604
	c0,4.362-3.536,7.897-7.897,7.897c-4.362,0-7.897-3.536-7.897-7.897c0-4.362,3.536-7.897,7.897-7.897
	C128.149,368.706,131.685,372.242,131.685,376.604z M214.998,226.64c0,4.362-3.536,7.897-7.897,7.897s-7.897-3.536-7.897-7.897
	s3.536-7.897,7.897-7.897S214.998,222.278,214.998,226.64z M381.625,159.989c0,4.362-3.536,7.897-7.897,7.897
	s-7.897-3.536-7.897-7.897s3.536-7.897,7.897-7.897S381.625,155.627,381.625,159.989z M235.489,64.62
	c0,4.362-3.536,7.897-7.897,7.897c-4.362,0-7.897-3.536-7.897-7.897s3.536-7.897,7.897-7.897
	C231.953,56.722,235.489,60.258,235.489,64.62z M81.697,326.616c0,4.362-3.536,7.897-7.897,7.897s-7.897-3.536-7.897-7.897
	s3.536-7.897,7.897-7.897S81.697,322.254,81.697,326.616z M165.01,143.326c0,4.362-3.536,7.897-7.897,7.897
	c-4.362,0-7.897-3.536-7.897-7.897c0-4.362,3.536-7.897,7.897-7.897C161.475,135.429,165.01,138.965,165.01,143.326z
	 M414.95,426.592c0,4.362-3.536,7.897-7.897,7.897c-4.362,0-7.897-3.536-7.897-7.897s3.536-7.897,7.897-7.897
	C411.415,418.694,414.95,422.23,414.95,426.592z M298.312,243.302c0,4.362-3.536,7.897-7.897,7.897s-7.897-3.536-7.897-7.897
	s3.536-7.897,7.897-7.897S298.312,238.941,298.312,243.302z M348.3,330.694c0,4.362-3.536,7.897-7.897,7.897
	c-4.362,0-7.897-3.536-7.897-7.897s3.536-7.897,7.897-7.897C344.764,322.797,348.3,326.333,348.3,330.694z M115.022,193.314
	c0,4.362-3.536,7.897-7.897,7.897s-7.897-3.536-7.897-7.897c0-4.362,3.536-7.897,7.897-7.897S115.022,188.953,115.022,193.314z
	 M281.649,126.664c0,4.362-3.536,7.897-7.897,7.897c-4.362,0-7.897-3.536-7.897-7.897c0-4.362,3.536-7.897,7.897-7.897
	C278.113,118.766,281.649,122.302,281.649,126.664z"/>
</svg>