<?xml version="1.0" ?><!-- Uploaded to: SVG Repo, www.svgrepo.com, Generator: SVG Repo Mixer Tools -->
<svg fill="#000000" width="800px" height="800px" viewBox="0 0 128 128" data-name="Layer 1" id="Layer_1" xmlns="http://www.w3.org/2000/svg"><title/><path d="M122.93,75.26v-.04A33.474,33.474,0,0,0,89.45,42H26.71a9.424,9.424,0,0,1,9.4-8.45h.03l31.94.12A11.9,11.9,0,0,0,80.01,21.78a1,1,0,0,0-2,0,9.9,9.9,0,0,1-9.89,9.89h-.03l-31.94-.12A11.463,11.463,0,0,0,24.69,42H14.9a9.71,9.71,0,0,1,0-19.42H62.96a6.42,6.42,0,1,0,0-12.84H57.58a1,1,0,1,0,0,2h5.38a4.42,4.42,0,1,1,0,8.84H14.9A11.71,11.71,0,0,0,14.9,44h9.78A33.481,33.481,0,0,0,58.15,76.5H78.98c.15,0,.31,0,.47.01a9.4,9.4,0,0,1,3.59.89,9.774,9.774,0,0,1,2.62,1.85c.21.23.43.45.61.69a.422.422,0,0,0,.05.07,9.217,9.217,0,0,1,1.8,3.47c0,.01,0,.01.01.02a8.107,8.107,0,0,1,.2.98.5.5,0,0,1,.02.12c.03.16.04.31.06.47.03.3.04.6.04.9a9.029,9.029,0,0,1-.21,1.95,6.488,6.488,0,0,1-.19.76,9.217,9.217,0,0,1-.62,1.56q-.105.21-.21.39a8.891,8.891,0,0,1-1.13,1.58c-.14.17-.3.33-.46.49-.18.18-.36.34-.56.51-.01.01-.03.02-.04.03-.2.17-.42.33-.64.49h-.01a2.425,2.425,0,0,1-.28.2c-.01,0-.02.01-.03.02s-.01,0-.02.02a9.487,9.487,0,0,1-5.07,1.47H58L43.28,80.72a1,1,0,0,0-1.41-.01,11.777,11.777,0,0,0-1.51,14.73H36.28a.99.99,0,0,0-1,1,11.712,11.712,0,0,0,22.18,5.27,23.241,23.241,0,0,0,22.59,17.94h9.4a33.244,33.244,0,0,0,12.68-2.49l.06-.03a33.353,33.353,0,0,0,20.75-30.97V75.5A1.846,1.846,0,0,0,122.93,75.26ZM41.63,52.77a4.385,4.385,0,1,1,4.38-4.38A4.387,4.387,0,0,1,41.63,52.77Zm39.3,1.82A3.208,3.208,0,1,1,77.721,57.8,3.211,3.211,0,0,1,80.928,54.59Zm-6.158,8.782a2.3,2.3,0,1,1,2.3-2.3A2.307,2.307,0,0,1,74.771,63.372Zm6.422,7.85a4.366,4.366,0,1,1,4.366-4.366A4.371,4.371,0,0,1,81.192,71.222ZM85,76.2a10.646,10.646,0,0,0-1.1-.61c-.24-.11-.48-.21-.72-.31A25.792,25.792,0,0,0,84.03,44h2.41A27.759,27.759,0,0,1,85,76.2Zm16.37,39.1c-.77.32-1.54.6-2.33.85A27.689,27.689,0,0,1,83.89,96.33a11.707,11.707,0,0,0,1.29-.72c.19-.12.37-.24.54-.37a25.727,25.727,0,0,0,16.01,19.9C101.61,115.2,101.49,115.25,101.37,115.3ZM120.94,78a27.855,27.855,0,0,1-30.55,6.88c-.01-.2-.04-.41-.07-.61a5.739,5.739,0,0,0-.13-.7c-.04-.2-.09-.41-.14-.61-.04-.16-.09-.31-.14-.47a25.79,25.79,0,0,0,31.01-7.55c.01.11.01.23.01.34a1.619,1.619,0,0,0,.01.22Z"/><path d="M41.63,46.77a1.615,1.615,0,1,0,1.61,1.62A1.62,1.62,0,0,0,41.63,46.77Z"/></svg>