<?xml version="1.0" encoding="iso-8859-1"?>
<!-- Uploaded to: SVG Repo, www.svgrepo.com, Generator: SVG Repo Mixer Tools -->
<svg fill="#000000" height="800px" width="800px" version="1.1" id="Layer_1" xmlns="http://www.w3.org/2000/svg" xmlns:xlink="http://www.w3.org/1999/xlink" 
	 viewBox="0 0 512 512" xml:space="preserve">
<g>
	<g>
		<path d="M505.882,216.818c-1.856-2.7-4.05-5.08-6.505-7.114c-67.541-58.992-154.08-91.475-243.848-91.475
			c-45.688,0-90.308,8.312-132.619,24.705c-40.637,15.744-78.076,38.493-111.281,67.615c0.004,0.006,0.006,0.013,0.01,0.019
			C4.504,216.934,0,226.189,0,236.48c0,10.704,4.932,20.767,13.295,27.323l32.012,122.169c1.204,4.595,5.356,7.799,10.106,7.799
			h401.205c4.75,0,8.903-3.204,10.106-7.799l32.033-122.22c6.636-5.216,11.102-12.567,12.653-20.941
			C513.099,233.689,511.135,224.458,505.882,216.818z M255.529,139.126c74.156,0,145.977,23.49,205.479,66.687
			c-1.166,0.621-2.307,1.303-3.411,2.061l-22.188,15.254c-1.406,0.965-3.367,0.965-4.771-0.003
			c-24.97-17.229-58.538-17.261-83.501-0.102l-0.188,0.129c-1.4,0.963-3.349,0.969-4.718,0.026l-0.217-0.15
			c-24.971-17.168-58.526-17.154-83.485,0.028l-0.161,0.11c-1.4,0.964-3.35,0.972-4.736,0.018l-0.202-0.139
			c-24.955-17.158-58.508-17.146-83.464,0.01l-0.162,0.111c-1.402,0.964-3.346,0.973-4.737,0.016l-0.21-0.144
			c-24.954-17.16-58.483-17.165-83.452,0l-0.137,0.095c-1.401,0.965-3.36,0.961-4.764-0.007l-21.521-14.849
			c-1.275-0.917-2.607-1.722-3.973-2.45C110.574,162.621,182.061,139.126,255.529,139.126z M448.555,372.875H63.476l-23.815-90.888
			c24.665,15.506,56.8,14.975,80.926-1.613l0.166-0.114c1.402-0.963,3.346-0.974,4.739-0.016l0.212,0.145
			c24.956,17.156,58.509,17.143,83.462-0.013l0.161-0.11c1.402-0.964,3.349-0.971,4.766,0.004l0.171,0.117
			c12.255,8.426,26.681,12.88,41.718,12.88c15.057,0,29.502-4.465,41.755-12.898l0.173-0.118c1.402-0.964,3.352-0.972,4.721-0.029
			l0.216,0.149c24.954,17.158,58.483,17.163,83.419,0.021l0.168-0.115c1.402-0.964,3.362-0.962,4.764,0.004
			c24.199,16.696,56.474,17.242,81.198,1.622L448.555,372.875z M490.864,239.006c-0.673,3.632-2.719,6.783-5.763,8.876
			l-22.192,15.257c-17.906,12.309-41.955,12.289-59.844-0.054c-8.514-5.872-19.955-5.879-28.457-0.03l-0.166,0.114
			c-17.868,12.283-41.88,12.279-59.736,0.001l-0.216-0.149c-8.496-5.842-19.919-5.832-28.404,0.007l-0.174,0.119
			c-8.772,6.038-19.122,9.23-29.928,9.23c-10.791,0-21.123-3.182-29.906-9.222l-0.17-0.116c-8.49-5.84-19.91-5.835-28.39-0.005
			l-0.162,0.111c-17.9,12.305-41.936,12.318-59.821,0.024l-0.21-0.144c-4.24-2.916-9.208-4.372-14.181-4.372
			c-4.98,0-9.963,1.463-14.214,4.384l-0.166,0.114c-17.898,12.306-41.941,12.281-59.828-0.064L26.869,247.86
			c-3.74-2.581-5.973-6.835-5.973-11.38c0-7.625,6.202-13.829,13.826-13.829c2.939,0,5.742,0.906,8.106,2.621
			c0.067,0.048,0.134,0.095,0.202,0.142l21.609,14.909c8.511,5.875,19.954,5.885,28.492,0.015l0.136-0.093
			c17.868-12.284,41.882-12.28,59.764,0.018l0.21,0.144c8.487,5.834,19.901,5.826,28.38-0.003l0.161-0.11
			c17.902-12.308,41.938-12.319,59.81-0.031l0.2,0.138c8.496,5.844,19.92,5.835,28.42-0.016l0.161-0.11
			c17.887-12.313,41.922-12.325,59.79-0.04l0.216,0.149c8.493,5.839,19.914,5.833,28.384,0.006l0.185-0.126
			c17.898-12.305,41.942-12.281,59.824,0.06c8.507,5.873,19.949,5.884,28.475,0.027l22.19-15.255
			c3.045-2.093,6.723-2.873,10.353-2.203c3.631,0.673,6.782,2.719,8.875,5.763C490.754,231.7,491.536,235.376,490.864,239.006z"/>
	</g>
</g>
<g>
	<g>
		<path d="M225.852,337.342h-0.137c-5.77,0-10.448,4.678-10.448,10.448s4.678,10.448,10.448,10.448h0.137
			c5.77,0,10.448-4.678,10.448-10.448S231.623,337.342,225.852,337.342z"/>
	</g>
</g>
<g>
	<g>
		<path d="M191.915,337.343H80.87c-5.77,0-10.448,4.678-10.448,10.448s4.678,10.448,10.448,10.448h111.044
			c5.77,0,10.448-4.678,10.448-10.448S197.685,337.343,191.915,337.343z"/>
	</g>
</g>
<g>
	<g>
		<path d="M131.665,170.161c-5.77,0-10.448,4.678-10.448,10.448v14.233c0,5.77,4.678,10.448,10.448,10.448
			s10.448-4.678,10.448-10.448v-14.233C142.113,174.839,137.436,170.161,131.665,170.161z"/>
	</g>
</g>
<g>
	<g>
		<path d="M193.831,151.355c-5.77,0-10.448,4.678-10.448,10.448v14.233c0,5.77,4.678,10.448,10.448,10.448
			s10.448-4.678,10.448-10.448v-14.233C204.279,156.032,199.601,151.355,193.831,151.355z"/>
	</g>
</g>
<g>
	<g>
		<path d="M255.997,170.161c-5.77,0-10.448,4.678-10.448,10.448v14.233c0,5.77,4.678,10.448,10.448,10.448
			s10.448-4.678,10.448-10.448v-14.233C266.445,174.839,261.767,170.161,255.997,170.161z"/>
	</g>
</g>
<g>
	<g>
		<path d="M318.163,151.355c-5.77,0-10.448,4.678-10.448,10.448v14.233c0,5.77,4.678,10.448,10.448,10.448
			s10.448-4.678,10.448-10.448v-14.233C328.611,156.032,323.933,151.355,318.163,151.355z"/>
	</g>
</g>
<g>
	<g>
		<path d="M380.329,170.161c-5.77,0-10.448,4.678-10.448,10.448v14.233c0,5.77,4.678,10.448,10.448,10.448
			s10.448-4.678,10.448-10.448v-14.233C390.777,174.839,386.099,170.161,380.329,170.161z"/>
	</g>
</g>
</svg>