<?xml version="1.0" encoding="iso-8859-1"?>
<!-- Uploaded to: SVG Repo, www.svgrepo.com, Generator: SVG Repo Mixer Tools -->
<svg fill="#000000" height="800px" width="800px" version="1.1" id="Layer_1" xmlns="http://www.w3.org/2000/svg" xmlns:xlink="http://www.w3.org/1999/xlink" 
	 viewBox="0 0 512 512" xml:space="preserve">
<g>
	<g>
		<path d="M501.801,300.018H497.2v-12.643h4.601c5.632,0,10.199-4.566,10.199-10.199c0-70.967-57.736-128.703-128.702-128.703
			H128.703C57.736,148.473,0,206.209,0,277.175c0,5.633,4.566,10.199,10.199,10.199h4v12.643h-4C4.566,300.017,0,304.583,0,310.216
			v33.245c0,11.064,9.002,20.065,20.066,20.065h471.868c11.065,0,20.066-9.001,20.066-20.065v-33.245
			C512,304.584,507.433,300.018,501.801,300.018z M128.703,168.871h254.596c56.278,0,102.668,43.153,107.828,98.105H20.875
			C26.033,212.024,72.425,168.871,128.703,168.871z M476.8,300.018h-38.543l19.18-12.643H476.8V300.018z M420.147,287.526
			l-37.024,24.407l-37.024-24.407H420.147z M327.986,300.017H277.11l19.181-12.643h12.515L327.986,300.017z M259,287.526
			l-37.024,24.407l-37.024-24.407H259z M158.057,294.229l-26.854,17.704l-37.254-24.559h53.71L158.057,294.229z M76.066,300.017
			H34.598v-12.643h22.288L76.066,300.017z M491.602,343.13H20.398v-22.714h86.612l18.579,12.247
			c1.702,1.123,3.658,1.684,5.614,1.684s3.91-0.561,5.614-1.684l18.761-12.307h42.205l18.579,12.307
			c1.702,1.123,3.658,1.684,5.614,1.684s3.91-0.561,5.614-1.684l18.579-12.247H358.93l18.579,12.247
			c1.703,1.123,3.658,1.684,5.614,1.684c1.955,0,3.91-0.561,5.614-1.684l18.579-12.247h84.286V343.13z"/>
	</g>
</g>
<g>
	<g>
		<path d="M332.494,179.668H126.47c-5.633,0-10.199,4.566-10.199,10.199s4.566,10.199,10.199,10.199h206.024
			c5.632,0,10.199-4.566,10.199-10.199S338.126,179.668,332.494,179.668z"/>
	</g>
</g>
<g>
	<g>
		<path d="M385.53,179.668h-14.279c-5.632,0-10.199,4.566-10.199,10.199s4.567,10.199,10.199,10.199h14.279
			c5.632,0,10.199-4.566,10.199-10.199S391.162,179.668,385.53,179.668z"/>
	</g>
</g>
</svg>