<?xml version="1.0" encoding="iso-8859-1"?><!--Uploaded to: SVG Repo, www.svgrepo.com, Generator: SVG Repo Mixer Tools--><!DOCTYPE svg PUBLIC "-//W3C//DTD SVG 1.1//EN" "http://www.w3.org/Graphics/SVG/1.1/DTD/svg11.dtd"><svg xmlns="http://www.w3.org/2000/svg" xmlns:xlink="http://www.w3.org/1999/xlink" xml:space="preserve" id="Capa_1" width="800px" height="800px" fill="#000000" version="1.1" viewBox="0 0 40.758 40.758"><g><path d="M26.549,10.386c0.113-0.297,0.184-0.617,0.184-0.953c0-0.604-0.207-1.156-0.545-1.604L31.797,2.1L29.652,0l-5.631,5.752
		c-1.025-1.727-2.902-2.887-5.059-2.887c-2.224,0-4.158,1.233-5.156,3.055c-0.022,0-0.047-0.006-0.069-0.006
		c-1.803,0-3.267,1.461-3.267,3.266c0,0.529,0.138,1.021,0.359,1.463c-0.822,0.604-1.439,1.662-1.687,2.945H8.961v1
		c0,4.752,3.592,18.514,9,20.068v4.102H14.1v2h9.729v-2h-3.864v-4.102c5.41-1.555,9.002-15.316,9.002-20.068v-1h-0.328
		C28.355,12.099,27.572,10.909,26.549,10.386z M18.965,32.804c-3.598,0-7.523-11.366-7.961-17.217h15.924
		C26.49,21.438,22.564,32.804,18.965,32.804z"/></g></svg>