<?xml version="1.0" encoding="UTF-8"?>
<svg version="1.1" xmlns="http://www.w3.org/2000/svg" width="512" height="512">
<path d="M0 0 C3.19014709 1.45869179 5.44779203 3.62159831 8 6 C9.54025029 7.30297936 11.08091769 8.60549417 12.62817383 9.90014648 C14.32356999 11.32178249 16.00840639 12.75512633 17.69140625 14.19140625 C21.56056713 17.48485938 25.47382637 20.72124779 29.4296875 23.91015625 C31.14622862 25.30582418 32.83932785 26.73081662 34.5078125 28.18359375 C35.67957031 29.17552734 35.67957031 29.17552734 36.875 30.1875 C37.55304687 30.77917969 38.23109375 31.37085938 38.9296875 31.98046875 C40.9744337 33.24613067 40.9744337 33.24613067 43.3125 32.5546875 C46.98748525 30.42875127 49.97879698 27.7717759 53.125 24.9375 C54.46382383 23.7540535 55.80367419 22.57176733 57.14453125 21.390625 C57.80018066 20.81119141 58.45583008 20.23175781 59.13134766 19.63476562 C63.32141201 15.96914361 67.66290497 12.48939009 72 9 C72.93328125 8.24332031 73.8665625 7.48664063 74.828125 6.70703125 C81.32512958 1.46302041 84.4214133 -0.51157241 92.91796875 -0.390625 C97.93387692 0.24510481 100.39189711 2.63761021 104 6 C105.54025029 7.30297936 107.08091769 8.60549417 108.62817383 9.90014648 C110.32356999 11.32178249 112.00840639 12.75512633 113.69140625 14.19140625 C117.56056713 17.48485938 121.47382637 20.72124779 125.4296875 23.91015625 C127.14622862 25.30582418 128.83932785 26.73081662 130.5078125 28.18359375 C131.28898438 28.84488281 132.07015625 29.50617188 132.875 30.1875 C133.89207031 31.07501953 133.89207031 31.07501953 134.9296875 31.98046875 C136.9744337 33.24613067 136.9744337 33.24613067 139.3125 32.5546875 C142.98748525 30.42875127 145.97879698 27.7717759 149.125 24.9375 C150.46382383 23.7540535 151.80367419 22.57176733 153.14453125 21.390625 C153.80018066 20.81119141 154.45583008 20.23175781 155.13134766 19.63476562 C159.32141201 15.96914361 163.66290497 12.48939009 168 9 C168.93328125 8.24332031 169.8665625 7.48664063 170.828125 6.70703125 C177.32512958 1.46302041 180.4214133 -0.51157241 188.91796875 -0.390625 C193.93387692 0.24510481 196.39189711 2.63761021 200 6 C201.54025029 7.30297936 203.08091769 8.60549417 204.62817383 9.90014648 C206.32356999 11.32178249 208.00840639 12.75512633 209.69140625 14.19140625 C213.56056713 17.48485938 217.47382637 20.72124779 221.4296875 23.91015625 C223.14622862 25.30582418 224.83932785 26.73081662 226.5078125 28.18359375 C227.28898438 28.84488281 228.07015625 29.50617188 228.875 30.1875 C229.89207031 31.07501953 229.89207031 31.07501953 230.9296875 31.98046875 C232.9744337 33.24613067 232.9744337 33.24613067 235.3125 32.5546875 C238.98748525 30.42875127 241.97879698 27.7717759 245.125 24.9375 C246.46382383 23.7540535 247.80367419 22.57176733 249.14453125 21.390625 C250.12800537 20.52147461 250.12800537 20.52147461 251.13134766 19.63476562 C255.32141201 15.96914361 259.66290497 12.48939009 264 9 C264.93328125 8.24332031 265.8665625 7.48664063 266.828125 6.70703125 C273.32512958 1.46302041 276.4214133 -0.51157241 284.91796875 -0.390625 C289.93387692 0.24510481 292.39189711 2.63761021 296 6 C297.54025029 7.30297936 299.08091769 8.60549417 300.62817383 9.90014648 C302.32356999 11.32178249 304.00840639 12.75512633 305.69140625 14.19140625 C309.56056713 17.48485938 313.47382637 20.72124779 317.4296875 23.91015625 C319.14622862 25.30582418 320.83932785 26.73081662 322.5078125 28.18359375 C323.28898437 28.84488281 324.07015625 29.50617188 324.875 30.1875 C325.89207031 31.07501953 325.89207031 31.07501953 326.9296875 31.98046875 C328.9744337 33.24613067 328.9744337 33.24613067 331.3125 32.5546875 C334.98748525 30.42875127 337.97879698 27.7717759 341.125 24.9375 C342.46382383 23.7540535 343.80367419 22.57176733 345.14453125 21.390625 C346.12800537 20.52147461 346.12800537 20.52147461 347.13134766 19.63476562 C351.32141201 15.96914361 355.66290497 12.48939009 360 9 C360.93328125 8.24332031 361.8665625 7.48664063 362.828125 6.70703125 C369.32512958 1.46302041 372.4214133 -0.51157241 380.91796875 -0.390625 C385.93387692 0.24510481 388.39189711 2.63761021 392 6 C393.54025029 7.30297936 395.08091769 8.60549417 396.62817383 9.90014648 C398.32356999 11.32178249 400.00840639 12.75512633 401.69140625 14.19140625 C405.56056713 17.48485938 409.47382637 20.72124779 413.4296875 23.91015625 C415.14622862 25.30582418 416.83932785 26.73081662 418.5078125 28.18359375 C419.28898437 28.84488281 420.07015625 29.50617188 420.875 30.1875 C421.89207031 31.07501953 421.89207031 31.07501953 422.9296875 31.98046875 C424.9744337 33.24613067 424.9744337 33.24613067 427.3125 32.5546875 C430.98748525 30.42875127 433.97879698 27.7717759 437.125 24.9375 C438.46382383 23.7540535 439.80367419 22.57176733 441.14453125 21.390625 C442.12800537 20.52147461 442.12800537 20.52147461 443.13134766 19.63476562 C447.32141201 15.96914361 451.66290497 12.48939009 456 9 C456.93328125 8.24332031 457.8665625 7.48664063 458.828125 6.70703125 C466.28126544 0.69128218 470.22614782 -0.91989197 480 0 C484.62493695 2.19075961 486.69618654 4.50822696 489 9 C490.73075996 18.92417767 487.39987146 29.07737334 484.96435547 38.63183594 C484.52956469 40.38072876 484.09598952 42.12992417 483.66352844 43.87939453 C482.49224918 48.60192934 481.30343391 53.31988309 480.11078024 58.03705883 C478.85931296 62.9973947 477.62249731 67.96138473 476.38357544 72.92486572 C474.3000197 81.26261361 472.20526261 89.59748439 470.10351562 97.93066406 C467.68332024 107.52692978 465.27969145 117.1272245 462.88525665 126.72994781 C460.57154394 136.00769058 458.24707839 145.28270599 455.91745377 154.55646515 C454.93109774 158.48344534 453.94821738 162.41127022 452.96819687 166.33983612 C451.80973635 170.98129135 450.64171924 175.62024513 449.46671104 180.25753784 C449.04029584 181.94642784 448.61694384 183.63609515 448.19712639 185.32663727 C441.13675384 213.72859098 429.15358091 239.86749547 403.33349609 255.92675781 C388.06946238 265.05610369 372.20887801 270.15596829 354.42614746 270.14044189 C352.82843844 270.14489858 352.82843844 270.14489858 351.19845247 270.1494453 C347.62903847 270.15811731 344.05965807 270.1596393 340.49023438 270.16113281 C337.93081592 270.16576212 335.37139816 270.17078693 332.8119812 270.17617798 C325.85707257 270.1892949 318.90217498 270.19578286 311.94725609 270.20018864 C307.59956618 270.20295559 303.25187848 270.20719383 298.90419006 270.21169281 C286.85309743 270.22388387 274.80200656 270.23418264 262.7509079 270.2375679 C261.98012635 270.23778747 261.20934479 270.23800703 260.41520622 270.23823325 C259.64263488 270.23845153 258.87006354 270.23866981 258.07408094 270.2388947 C256.50869719 270.23933816 254.94331344 270.23978472 253.37792969 270.24023438 C252.60145397 270.2404558 251.82497826 270.24067723 251.02497298 270.24090537 C238.45739153 270.24484916 225.88986821 270.26229109 213.3223092 270.2855939 C200.40148755 270.3093571 187.48069501 270.32177205 174.55985117 270.32293582 C167.3125889 270.32384994 160.06540233 270.3295353 152.81816101 270.34775543 C145.99570576 270.36484775 139.1733959 270.36637202 132.35092545 270.35761642 C129.85410808 270.35684815 127.35728288 270.36116093 124.86048508 270.37107468 C94.36495461 270.48500657 69.75576463 263.30488828 47.3125 241.625 C36.2405064 230.25754589 28.57913057 216.63318077 24.36474609 201.35571289 C24.11747458 200.47399194 23.87020306 199.59227098 23.61543846 198.68383121 C19.20725799 182.73832978 15.26017895 166.66426086 11.2265625 150.62109375 C10.76411302 148.78347329 10.30162258 146.94586313 9.83909225 145.10826302 C7.66988977 136.48827604 5.50398662 127.86746852 3.3422209 119.24561352 C0.8607406 109.34912704 -1.63246947 99.45569014 -4.1354059 89.56460899 C-6.08177692 81.86973557 -8.01724389 74.17216977 -9.94463789 66.47252136 C-11.0912315 61.89316701 -12.24237534 57.31507703 -13.40516281 52.73980522 C-14.49619581 48.44577997 -15.57358466 44.14855343 -16.64089966 39.84857368 C-17.0326462 38.28010896 -17.42915189 36.71282329 -17.83098221 35.14691162 C-23.29131605 13.83722276 -23.29131605 13.83722276 -19.3125 5.4375 C-13.64829198 -0.53288142 -7.92889347 -1.2278339 0 0 Z " fill="#000000" transform="translate(22,242)"/>
<path d="M0 0 C0.64743164 0.34111816 1.29486328 0.68223633 1.96191406 1.03369141 C32.40080783 17.12239277 61.24499901 41.46864608 82 69 C82.41378906 69.53737793 82.82757813 70.07475586 83.25390625 70.62841797 C107.28786265 101.888327 132.45843472 146.1638278 131 187 C130.17757813 187.21914062 129.35515625 187.43828125 128.5078125 187.6640625 C115.19573355 191.44555375 106.48567473 198.00134546 96.3203125 207.07421875 C93.96154527 209.17757386 91.57887048 211.16628054 89 213 C85.48584063 211.44723191 82.81419888 209.33432968 79.875 206.875 C78.90304687 206.07320312 77.93109375 205.27140625 76.9296875 204.4453125 C75.09119 202.91077992 73.26158611 201.36546085 71.4453125 199.8046875 C59.06456449 189.40169476 46.84062734 186.70002007 31 188 C18.54554932 190.57019914 9.41374877 199.1685513 0.13671875 207.29296875 C-2.16929434 209.30635104 -4.51175132 211.21214725 -7 213 C-10.51415937 211.44723191 -13.18580112 209.33432968 -16.125 206.875 C-17.09695313 206.07320312 -18.06890625 205.27140625 -19.0703125 204.4453125 C-20.90881 202.91077992 -22.73841389 201.36546085 -24.5546875 199.8046875 C-36.93543551 189.40169476 -49.15937266 186.70002007 -65 188 C-77.45445068 190.57019914 -86.58625123 199.1685513 -95.86328125 207.29296875 C-98.16929434 209.30635104 -100.51175132 211.21214725 -103 213 C-106.51415937 211.44723191 -109.18580112 209.33432968 -112.125 206.875 C-113.09695312 206.07320312 -114.06890625 205.27140625 -115.0703125 204.4453125 C-116.90881 202.91077992 -118.73841389 201.36546085 -120.5546875 199.8046875 C-132.93543551 189.40169476 -145.15937266 186.70002007 -161 188 C-173.45445068 190.57019914 -182.58625123 199.1685513 -191.86328125 207.29296875 C-194.16929434 209.30635104 -196.51175132 211.21214725 -199 213 C-202.51415937 211.44723191 -205.18580112 209.33432968 -208.125 206.875 C-209.09695312 206.07320312 -210.06890625 205.27140625 -211.0703125 204.4453125 C-212.90881 202.91077992 -214.73841389 201.36546085 -216.5546875 199.8046875 C-228.93543551 189.40169476 -241.15937266 186.70002007 -257 188 C-269.45445068 190.57019914 -278.58625123 199.1685513 -287.86328125 207.29296875 C-290.16929434 209.30635104 -292.51175132 211.21214725 -295 213 C-298.51415937 211.44723191 -301.18580112 209.33432968 -304.125 206.875 C-305.09695313 206.07320312 -306.06890625 205.27140625 -307.0703125 204.4453125 C-308.90881 202.91077992 -310.73841389 201.36546085 -312.5546875 199.8046875 C-320.52263234 193.1095773 -328.81764629 189.11331869 -339 187 C-338.03265522 141.1830338 -313.11390236 96.07946919 -284 62 C-283.37480469 61.26265625 -282.74960937 60.5253125 -282.10546875 59.765625 C-270.49962077 46.48871804 -257.96356393 33.65358698 -243.69482422 23.24609375 C-241.93279423 21.95058798 -240.20219615 20.61975936 -238.47265625 19.28125 C-228.84556749 11.91235126 -218.63899948 5.79277292 -208 0 C-207.31824707 -0.37253906 -206.63649414 -0.74507812 -205.93408203 -1.12890625 C-141.59173427 -35.85487338 -64.03520118 -34.43402327 0 0 Z M-196.875 42.125 C-198.53202073 46.35960852 -198.85431429 50.52662202 -198 55 C-195.4518569 59.1917116 -192.61383331 62.64243242 -189.15625 66.109375 C-188.23972656 67.02847656 -187.32320312 67.94757813 -186.37890625 68.89453125 C-185.66951904 69.59763428 -185.66951904 69.59763428 -184.94580078 70.31494141 C-183.49662672 71.75334822 -182.05850827 73.20219574 -180.62109375 74.65234375 C-179.70457031 75.56628906 -178.78804687 76.48023438 -177.84375 77.421875 C-177.01037109 78.25299805 -176.17699219 79.08412109 -175.31835938 79.94042969 C-170.83285389 83.92523637 -167.33988177 84.44602095 -161.47265625 84.31640625 C-156.77955595 83.71586735 -154.1557958 81.30990191 -151.125 77.875 C-149.46797927 73.64039148 -149.14568571 69.47337798 -150 65 C-152.5481431 60.8082884 -155.38616669 57.35756758 -158.84375 53.890625 C-159.76027344 52.97152344 -160.67679688 52.05242187 -161.62109375 51.10546875 C-162.33048096 50.40236572 -162.33048096 50.40236572 -163.05419922 49.68505859 C-164.50337328 48.24665178 -165.94149173 46.79780426 -167.37890625 45.34765625 C-168.29542969 44.43371094 -169.21195313 43.51976563 -170.15625 42.578125 C-170.98962891 41.74700195 -171.82300781 40.91587891 -172.68164062 40.05957031 C-177.16714611 36.07476363 -180.66011823 35.55397905 -186.52734375 35.68359375 C-191.22044405 36.28413265 -193.8442042 38.69009809 -196.875 42.125 Z M-40.109375 44.84375 C-41.02847656 45.76027344 -41.94757813 46.67679688 -42.89453125 47.62109375 C-43.3632666 48.09401855 -43.83200195 48.56694336 -44.31494141 49.05419922 C-45.75334822 50.50337328 -47.20219574 51.94149173 -48.65234375 53.37890625 C-49.56628906 54.29542969 -50.48023438 55.21195313 -51.421875 56.15625 C-52.25299805 56.98962891 -53.08412109 57.82300781 -53.94042969 58.68164062 C-57.92523637 63.16714611 -58.44602095 66.66011823 -58.31640625 72.52734375 C-57.71586735 77.22044405 -55.30990191 79.8442042 -51.875 82.875 C-47.64039148 84.53202073 -43.47337798 84.85431429 -39 84 C-34.8082884 81.4518569 -31.35756758 78.61383331 -27.890625 75.15625 C-26.97152344 74.23972656 -26.05242187 73.32320312 -25.10546875 72.37890625 C-24.6367334 71.90598145 -24.16799805 71.43305664 -23.68505859 70.94580078 C-22.24665178 69.49662672 -20.79780426 68.05850827 -19.34765625 66.62109375 C-18.43371094 65.70457031 -17.51976562 64.78804687 -16.578125 63.84375 C-15.74700195 63.01037109 -14.91587891 62.17699219 -14.05957031 61.31835938 C-10.07476363 56.83285389 -9.55397905 53.33988177 -9.68359375 47.47265625 C-10.28413265 42.77955595 -12.69009809 40.1557958 -16.125 37.125 C-26.30902314 33.13994747 -32.87024641 37.62416398 -40.109375 44.84375 Z M-250.109375 114.84375 C-251.02847656 115.76027344 -251.94757813 116.67679688 -252.89453125 117.62109375 C-253.3632666 118.09401855 -253.83200195 118.56694336 -254.31494141 119.05419922 C-255.75334822 120.50337328 -257.20219574 121.94149173 -258.65234375 123.37890625 C-259.56628906 124.29542969 -260.48023438 125.21195313 -261.421875 126.15625 C-262.25299805 126.98962891 -263.08412109 127.82300781 -263.94042969 128.68164062 C-267.92523637 133.16714611 -268.44602095 136.66011823 -268.31640625 142.52734375 C-267.71586735 147.22044405 -265.30990191 149.8442042 -261.875 152.875 C-257.64039148 154.53202073 -253.47337798 154.85431429 -249 154 C-244.8082884 151.4518569 -241.35756758 148.61383331 -237.890625 145.15625 C-236.97152344 144.23972656 -236.05242187 143.32320312 -235.10546875 142.37890625 C-234.6367334 141.90598145 -234.16799805 141.43305664 -233.68505859 140.94580078 C-232.24665178 139.49662672 -230.79780426 138.05850827 -229.34765625 136.62109375 C-228.43371094 135.70457031 -227.51976562 134.78804687 -226.578125 133.84375 C-225.74700195 133.01037109 -224.91587891 132.17699219 -224.05957031 131.31835938 C-220.07476363 126.83285389 -219.55397905 123.33988177 -219.68359375 117.47265625 C-220.28413265 112.77955595 -222.69009809 110.1557958 -226.125 107.125 C-236.30902314 103.13994747 -242.87024641 107.62416398 -250.109375 114.84375 Z M-110.109375 114.84375 C-111.02847656 115.76027344 -111.94757813 116.67679688 -112.89453125 117.62109375 C-113.3632666 118.09401855 -113.83200195 118.56694336 -114.31494141 119.05419922 C-115.75334822 120.50337328 -117.20219574 121.94149173 -118.65234375 123.37890625 C-119.56628906 124.29542969 -120.48023438 125.21195313 -121.421875 126.15625 C-122.25299805 126.98962891 -123.08412109 127.82300781 -123.94042969 128.68164062 C-127.92523637 133.16714611 -128.44602095 136.66011823 -128.31640625 142.52734375 C-127.71586735 147.22044405 -125.30990191 149.8442042 -121.875 152.875 C-117.64039148 154.53202073 -113.47337798 154.85431429 -109 154 C-104.8082884 151.4518569 -101.35756758 148.61383331 -97.890625 145.15625 C-96.97152344 144.23972656 -96.05242187 143.32320312 -95.10546875 142.37890625 C-94.6367334 141.90598145 -94.16799805 141.43305664 -93.68505859 140.94580078 C-92.24665178 139.49662672 -90.79780426 138.05850827 -89.34765625 136.62109375 C-88.43371094 135.70457031 -87.51976562 134.78804687 -86.578125 133.84375 C-85.74700195 133.01037109 -84.91587891 132.17699219 -84.05957031 131.31835938 C-80.07476363 126.83285389 -79.55397905 123.33988177 -79.68359375 117.47265625 C-80.28413265 112.77955595 -82.69009809 110.1557958 -86.125 107.125 C-96.30902314 103.13994747 -102.87024641 107.62416398 -110.109375 114.84375 Z M13.125 112.125 C11.46797927 116.35960852 11.14568571 120.52662202 12 125 C14.5481431 129.1917116 17.38616669 132.64243242 20.84375 136.109375 C21.76027344 137.02847656 22.67679687 137.94757813 23.62109375 138.89453125 C24.33048096 139.59763428 24.33048096 139.59763428 25.05419922 140.31494141 C26.50337328 141.75334822 27.94149173 143.20219574 29.37890625 144.65234375 C30.29542969 145.56628906 31.21195312 146.48023438 32.15625 147.421875 C32.98962891 148.25299805 33.82300781 149.08412109 34.68164062 149.94042969 C39.16714611 153.92523637 42.66011823 154.44602095 48.52734375 154.31640625 C53.22044405 153.71586735 55.8442042 151.30990191 58.875 147.875 C60.53202073 143.64039148 60.85431429 139.47337798 60 135 C57.4518569 130.8082884 54.61383331 127.35756758 51.15625 123.890625 C50.23972656 122.97152344 49.32320313 122.05242187 48.37890625 121.10546875 C47.66951904 120.40236572 47.66951904 120.40236572 46.94580078 119.68505859 C45.49662672 118.24665178 44.05850827 116.79780426 42.62109375 115.34765625 C41.70457031 114.43371094 40.78804688 113.51976562 39.84375 112.578125 C39.01037109 111.74700195 38.17699219 110.91587891 37.31835938 110.05957031 C32.83285389 106.07476363 29.33988177 105.55397905 23.47265625 105.68359375 C18.77955595 106.28413265 16.1557958 108.69009809 13.125 112.125 Z " fill="#000000" transform="translate(360,26)"/>
</svg>
