<?xml version="1.0" encoding="iso-8859-1"?>
<!-- Uploaded to: SVG Repo, www.svgrepo.com, Generator: SVG Repo Mixer Tools -->
<svg fill="#000000" height="800px" width="800px" version="1.1" id="Layer_1" xmlns="http://www.w3.org/2000/svg" xmlns:xlink="http://www.w3.org/1999/xlink" 
	 viewBox="0 0 512 512" xml:space="preserve">
<g>
	<g>
		<path d="M197.359,108.234c0-3.168,0.21-6.287,0.575-9.359L134.174,7.487c-5.528-7.925-16.437-9.867-24.362-4.338
			s-9.867,16.436-4.338,24.362l71.301,102.197c6.874-3.169,14.275-5.375,22.038-6.447
			C197.868,118.394,197.359,113.373,197.359,108.234z"/>
	</g>
</g>
<g>
	<g>
		<path d="M276.095,52.828c-30.551,0-55.407,24.856-55.407,55.407c0,5.346,0.777,10.511,2.195,15.406
			c22.721,3.87,42.154,17.494,53.813,36.411c11.442-18.566,30.371-32.03,52.546-36.185c1.462-4.961,2.261-10.204,2.261-15.632
			C331.503,77.684,306.646,52.828,276.095,52.828z"/>
	</g>
</g>
<g>
	<g>
		<path d="M407.303,247.671c-3.352-7.384-9.974-12.963-18.022-14.888c6.23-8.96,9.895-19.83,9.895-31.546
			c0-30.551-24.856-55.407-55.407-55.407s-55.407,24.856-55.407,55.407c0,11.394,3.461,21.994,9.381,30.81h-42.092
			c5.921-8.816,9.381-19.416,9.381-30.81c0-30.551-24.856-55.407-55.407-55.407s-55.407,24.856-55.407,55.407
			c0,11.716,3.665,22.586,9.895,31.546c-8.047,1.925-14.669,7.504-18.021,14.888c-1.519,3.348-2.371,7.062-2.371,10.978v11.097
			c0,65.073,47.825,119.219,108.482,130.717v77.629l-24.846,22.213c-4.587,4.1-1.686,11.696,4.466,11.696h90.489
			c6.2,0,9.075-7.696,4.393-11.762l-25.511-22.148v-77.629c61.823-11.498,108.482-65.645,108.482-130.717v-11.097
			C409.675,254.733,408.822,251.019,407.303,247.671z"/>
	</g>
</g>
</svg>